<?xml version="1.0" encoding="utf-8"?>
<!-- Generator: Adobe Illustrator 23.0.5, SVG Export Plug-In . SVG Version: 6.00 Build 0)  -->
<svg version="1.1" id="Layer_1" xmlns="http://www.w3.org/2000/svg" xmlns:xlink="http://www.w3.org/1999/xlink" x="0px" y="0px"
	 viewBox="0 0 512 512" style="enable-background:new 0 0 512 512;" xml:space="preserve">
<style type="text/css">
	.st0{fill:url(#XMLID_2_);}
	.st1{fill:url(#XMLID_3_);}
	.st2{fill:url(#XMLID_4_);}
	.st3{fill:url(#XMLID_5_);}
	.st4{fill:url(#XMLID_6_);}
	.st5{fill:url(#XMLID_7_);}
	.st6{fill:url(#XMLID_8_);}
	.st7{fill:url(#XMLID_9_);}
	.st8{fill:url(#XMLID_10_);}
	.st9{fill:url(#XMLID_11_);}
	.st10{fill:url(#XMLID_12_);}
	.st11{fill:url(#XMLID_13_);}
	.st12{fill:url(#XMLID_14_);}
	.st13{fill:url(#XMLID_15_);}
	.st14{fill:url(#XMLID_16_);}
	.st15{fill:url(#XMLID_17_);}
	.st16{fill:url(#XMLID_18_);}
	.st17{fill:url(#XMLID_19_);}
	.st18{opacity:0.37;fill:url(#XMLID_20_);}
	.st19{opacity:0.37;fill:url(#XMLID_21_);}
	.st20{opacity:0.37;fill:url(#XMLID_22_);}
	.st21{opacity:0.37;fill:url(#XMLID_23_);}
	.st22{opacity:0.37;fill:url(#XMLID_24_);}
	.st23{opacity:0.37;fill:url(#XMLID_25_);}
	.st24{opacity:0.37;fill:url(#XMLID_26_);}
	.st25{opacity:0.37;fill:url(#XMLID_27_);}
	.st26{opacity:0.37;fill:url(#XMLID_28_);}
	.st27{opacity:0.37;fill:url(#XMLID_29_);}
	.st28{opacity:0.37;fill:url(#XMLID_30_);}
	.st29{opacity:0.37;fill:url(#XMLID_31_);}
	.st30{opacity:0.37;fill:url(#XMLID_32_);}
	.st31{opacity:0.37;fill:url(#XMLID_33_);}
	.st32{opacity:0.25;fill:url(#XMLID_34_);}
	.st33{opacity:0.56;fill:#F5F5F5;}
	.st34{opacity:0.6;fill:url(#XMLID_35_);}
	.st35{opacity:0.78;fill:#ECECEC;}
	.st36{opacity:0.51;fill:url(#XMLID_36_);}
	.st37{opacity:0.81;fill:#ECECEC;}
	.st38{fill:#F5F5F5;}
	.st39{opacity:0.46;fill:#F5F5F5;}
	.st40{opacity:0.68;fill:#FFFFFF;}
	.st41{fill:url(#XMLID_37_);}
	.st42{fill:url(#XMLID_38_);}
	.st43{fill:url(#XMLID_39_);}
	.st44{fill:url(#XMLID_40_);}
	.st45{fill:url(#XMLID_41_);}
	.st46{fill:url(#XMLID_42_);}
</style>
<g id="XMLID_1318_">
	<g id="XMLID_1360_">
		<radialGradient id="XMLID_2_" cx="244.5452" cy="256" r="199.3774" gradientUnits="userSpaceOnUse">
			<stop  offset="0.1687" style="stop-color:#35A8E0"/>
			<stop  offset="0.5273" style="stop-color:#33699C"/>
			<stop  offset="0.6262" style="stop-color:#315F90"/>
			<stop  offset="0.8033" style="stop-color:#2D4671"/>
			<stop  offset="0.9859" style="stop-color:#27264B"/>
		</radialGradient>
		<circle id="XMLID_1374_" class="st0" cx="244.5" cy="256" r="196.5"/>
		<radialGradient id="XMLID_3_" cx="282.9091" cy="117.1277" r="4.9041" gradientUnits="userSpaceOnUse">
			<stop  offset="0.1141" style="stop-color:#FFFFFF"/>
			<stop  offset="0.464" style="stop-color:#D9D9D9"/>
			<stop  offset="0.9525" style="stop-color:#868686"/>
		</radialGradient>
		<path id="XMLID_1373_" class="st1" d="M288.4,118.1c0,2.3-1.9,4.2-4.2,4.2c-2.3,0-4.2-1.9-4.2-4.2c0-2.3,1.9-4.2,4.2-4.2
			C286.5,113.9,288.4,115.7,288.4,118.1z"/>
		<radialGradient id="XMLID_4_" cx="393.3837" cy="193.3025" r="4.904" gradientUnits="userSpaceOnUse">
			<stop  offset="0.1141" style="stop-color:#FFFFFF"/>
			<stop  offset="0.464" style="stop-color:#D9D9D9"/>
			<stop  offset="0.9525" style="stop-color:#868686"/>
		</radialGradient>
		<path id="XMLID_1372_" class="st2" d="M398.9,194.3c0,2.3-1.9,4.2-4.2,4.2c-2.3,0-4.2-1.9-4.2-4.2c0-2.3,1.9-4.2,4.2-4.2
			C397,190,398.9,191.9,398.9,194.3z"/>
		<radialGradient id="XMLID_5_" cx="92.09" cy="325.5592" r="4.9041" gradientUnits="userSpaceOnUse">
			<stop  offset="0.1141" style="stop-color:#FFFFFF"/>
			<stop  offset="0.464" style="stop-color:#D9D9D9"/>
			<stop  offset="0.9525" style="stop-color:#868686"/>
		</radialGradient>
		<path id="XMLID_1371_" class="st3" d="M97.6,326.5c0,2.3-1.9,4.2-4.2,4.2c-2.3,0-4.2-1.9-4.2-4.2c0-2.3,1.9-4.2,4.2-4.2
			C95.7,322.3,97.6,324.2,97.6,326.5z"/>
		<radialGradient id="XMLID_6_" cx="329.8078" cy="405.6449" r="4.9041" gradientUnits="userSpaceOnUse">
			<stop  offset="0.1141" style="stop-color:#FFFFFF"/>
			<stop  offset="0.464" style="stop-color:#D9D9D9"/>
			<stop  offset="0.9525" style="stop-color:#868686"/>
		</radialGradient>
		<path id="XMLID_1370_" class="st4" d="M335.3,406.6c0,2.3-1.9,4.2-4.2,4.2c-2.3,0-4.2-1.9-4.2-4.2c0-2.3,1.9-4.2,4.2-4.2
			C333.4,402.4,335.3,404.3,335.3,406.6z"/>
		<radialGradient id="XMLID_7_" cx="123.6284" cy="167.5122" r="4.9041" gradientUnits="userSpaceOnUse">
			<stop  offset="0.1141" style="stop-color:#FFFFFF"/>
			<stop  offset="0.464" style="stop-color:#D9D9D9"/>
			<stop  offset="0.9525" style="stop-color:#868686"/>
		</radialGradient>
		<path id="XMLID_1369_" class="st5" d="M129.1,168.5c0,2.3-1.9,4.2-4.2,4.2c-2.3,0-4.2-1.9-4.2-4.2c0-2.3,1.9-4.2,4.2-4.2
			C127.2,164.2,129.1,166.1,129.1,168.5z"/>
		<radialGradient id="XMLID_8_" cx="143.2154" cy="163.7625" r="2.452" gradientUnits="userSpaceOnUse">
			<stop  offset="0.1141" style="stop-color:#FFFFFF"/>
			<stop  offset="0.464" style="stop-color:#D9D9D9"/>
			<stop  offset="0.9525" style="stop-color:#868686"/>
		</radialGradient>
		<circle id="XMLID_1368_" class="st6" cx="143.9" cy="164.2" r="2.1"/>
		<radialGradient id="XMLID_9_" cx="102.587" cy="332.3821" r="2.452" gradientUnits="userSpaceOnUse">
			<stop  offset="0.1141" style="stop-color:#FFFFFF"/>
			<stop  offset="0.464" style="stop-color:#D9D9D9"/>
			<stop  offset="0.9525" style="stop-color:#868686"/>
		</radialGradient>
		<circle id="XMLID_1367_" class="st7" cx="103.2" cy="332.9" r="2.1"/>
		<radialGradient id="XMLID_10_" cx="319.0824" cy="391.2348" r="2.4521" gradientUnits="userSpaceOnUse">
			<stop  offset="0.1141" style="stop-color:#FFFFFF"/>
			<stop  offset="0.464" style="stop-color:#D9D9D9"/>
			<stop  offset="0.9525" style="stop-color:#868686"/>
		</radialGradient>
		<path id="XMLID_1366_" class="st8" d="M321.8,391.7c0,1.2-0.9,2.1-2.1,2.1c-1.2,0-2.1-0.9-2.1-2.1s0.9-2.1,2.1-2.1
			C320.9,389.6,321.8,390.5,321.8,391.7z"/>
		<radialGradient id="XMLID_11_" cx="239.8554" cy="401.8951" r="2.4521" gradientUnits="userSpaceOnUse">
			<stop  offset="0.1141" style="stop-color:#FFFFFF"/>
			<stop  offset="0.464" style="stop-color:#D9D9D9"/>
			<stop  offset="0.9525" style="stop-color:#868686"/>
		</radialGradient>
		<path id="XMLID_1365_" class="st9" d="M242.6,402.4c0,1.2-0.9,2.1-2.1,2.1c-1.2,0-2.1-0.9-2.1-2.1c0-1.2,0.9-2.1,2.1-2.1
			C241.7,400.3,242.6,401.2,242.6,402.4z"/>
		<radialGradient id="XMLID_12_" cx="400.3592" cy="214.2035" r="2.4521" gradientUnits="userSpaceOnUse">
			<stop  offset="0.1141" style="stop-color:#FFFFFF"/>
			<stop  offset="0.464" style="stop-color:#D9D9D9"/>
			<stop  offset="0.9525" style="stop-color:#868686"/>
		</radialGradient>
		<path id="XMLID_1364_" class="st10" d="M403.1,214.7c0,1.2-0.9,2.1-2.1,2.1c-1.2,0-2.1-0.9-2.1-2.1c0-1.2,0.9-2.1,2.1-2.1
			C402.2,212.6,403.1,213.5,403.1,214.7z"/>
		<radialGradient id="XMLID_13_" cx="343.8673" cy="130.8994" r="2.4522" gradientUnits="userSpaceOnUse">
			<stop  offset="0.1141" style="stop-color:#FFFFFF"/>
			<stop  offset="0.464" style="stop-color:#D9D9D9"/>
			<stop  offset="0.9525" style="stop-color:#868686"/>
		</radialGradient>
		<path id="XMLID_1363_" class="st11" d="M346.6,131.4c0,1.2-0.9,2.1-2.1,2.1c-1.2,0-2.1-0.9-2.1-2.1c0-1.2,0.9-2.1,2.1-2.1
			C345.7,129.3,346.6,130.2,346.6,131.4z"/>
		<radialGradient id="XMLID_14_" cx="271.3733" cy="117.6044" r="2.452" gradientUnits="userSpaceOnUse">
			<stop  offset="0.1141" style="stop-color:#FFFFFF"/>
			<stop  offset="0.464" style="stop-color:#D9D9D9"/>
			<stop  offset="0.9525" style="stop-color:#868686"/>
		</radialGradient>
		<circle id="XMLID_1362_" class="st12" cx="272" cy="118.1" r="2.1"/>
		<radialGradient id="XMLID_15_" cx="249.6747" cy="86.9384" r="2.4521" gradientUnits="userSpaceOnUse">
			<stop  offset="0.1141" style="stop-color:#FFFFFF"/>
			<stop  offset="0.464" style="stop-color:#D9D9D9"/>
			<stop  offset="0.9525" style="stop-color:#868686"/>
		</radialGradient>
		<path id="XMLID_1361_" class="st13" d="M252.4,87.4c0,1.2-0.9,2.1-2.1,2.1c-1.2,0-2.1-0.9-2.1-2.1c0-1.2,0.9-2.1,2.1-2.1
			C251.5,85.3,252.4,86.2,252.4,87.4z"/>
	</g>
	<g id="XMLID_1336_">
		
			<radialGradient id="XMLID_16_" cx="146.7696" cy="453.1617" r="189.999" gradientTransform="matrix(0.9542 -0.2991 0.2991 0.9542 -104.48 -167.7487)" gradientUnits="userSpaceOnUse">
			<stop  offset="0.1141" style="stop-color:#FFE9CA"/>
			<stop  offset="0.6835" style="stop-color:#FCCA7D"/>
			<stop  offset="0.9525" style="stop-color:#D2B469"/>
		</radialGradient>
		<circle id="XMLID_1359_" class="st14" cx="244.5" cy="256" r="138"/>
		<g id="XMLID_1355_">
			<radialGradient id="XMLID_17_" cx="187.3981" cy="226.6265" r="35.1928" gradientUnits="userSpaceOnUse">
				<stop  offset="0" style="stop-color:#3C3C3B"/>
				<stop  offset="1" style="stop-color:#1D1D1B"/>
			</radialGradient>
			<path id="XMLID_1358_" class="st15" d="M204.8,215.4L204.8,215.4c0,9.3-7.5,16.8-16.8,16.8c-9.3,0-16.8-7.5-16.8-16.8l0,0h-4.4
				l0,0c0,11.7,9.5,21.2,21.2,21.2s21.2-9.5,21.2-21.2l0,0H204.8z"/>
			<radialGradient id="XMLID_18_" cx="300.421" cy="226.6265" r="35.1928" gradientUnits="userSpaceOnUse">
				<stop  offset="0" style="stop-color:#3C3C3B"/>
				<stop  offset="1" style="stop-color:#1D1D1B"/>
			</radialGradient>
			<path id="XMLID_1357_" class="st16" d="M317.8,215.4L317.8,215.4c0,9.3-7.5,16.8-16.8,16.8c-9.3,0-16.8-7.5-16.8-16.8l0,0h-4.4
				l0,0c0,11.7,9.5,21.2,21.2,21.2c11.7,0,21.2-9.5,21.2-21.2l0,0H317.8z"/>
			<radialGradient id="XMLID_19_" cx="243.9934" cy="293.4055" r="28.7475" gradientUnits="userSpaceOnUse">
				<stop  offset="0" style="stop-color:#3C3C3B"/>
				<stop  offset="1" style="stop-color:#1D1D1B"/>
			</radialGradient>
			<path id="XMLID_1356_" class="st17" d="M257.6,287.7c-3.1,3.8-7.8,6.2-13,6.2c-5.3,0-10-2.4-13-6.2h-5.4
				c3.7,6.4,10.5,10.7,18.4,10.7c7.9,0,14.7-4.3,18.4-10.7H257.6z"/>
		</g>
		
			<radialGradient id="XMLID_20_" cx="239.2427" cy="455.378" r="28.3346" gradientTransform="matrix(0.9542 -0.2991 0.2991 0.9542 -104.48 -167.7487)" gradientUnits="userSpaceOnUse">
			<stop  offset="0" style="stop-color:#FFE9CA"/>
			<stop  offset="0.5476" style="stop-color:#FCCA7D"/>
			<stop  offset="0.9525" style="stop-color:#D2B469"/>
		</radialGradient>
		<circle id="XMLID_1354_" class="st18" cx="260" cy="195.2" r="28.3"/>
		
			<radialGradient id="XMLID_21_" cx="322.9627" cy="586.3831" r="28.3339" gradientTransform="matrix(0.8941 -0.2803 0.2842 0.9067 -131.4628 -144.3007)" gradientUnits="userSpaceOnUse">
			<stop  offset="0" style="stop-color:#FFE9CA"/>
			<stop  offset="0.5476" style="stop-color:#FCCA7D"/>
			<stop  offset="0.9525" style="stop-color:#D2B469"/>
		</radialGradient>
		<path id="XMLID_1353_" class="st19" d="M349.3,288.9c4.4,14.2-3.3,29.2-17.3,33.6c-14,4.4-28.9-3.6-33.4-17.7
			c-4.4-14.2,3.3-29.2,17.3-33.6C329.9,266.8,344.8,274.7,349.3,288.9z"/>
		
			<radialGradient id="XMLID_22_" cx="228.7778" cy="635.634" r="6.6859" gradientTransform="matrix(0.8941 -0.2803 0.2842 0.9067 -131.4628 -144.3007)" gradientUnits="userSpaceOnUse">
			<stop  offset="0" style="stop-color:#FFE9CA"/>
			<stop  offset="0.5476" style="stop-color:#FCCA7D"/>
			<stop  offset="0.9525" style="stop-color:#D2B469"/>
		</radialGradient>
		<path id="XMLID_1352_" class="st20" d="M259.7,366c1,3.3-0.8,6.9-4.1,7.9c-3.3,1-6.8-0.8-7.9-4.2c-1-3.3,0.8-6.9,4.1-7.9
			C255.1,360.8,258.7,362.7,259.7,366z"/>
		
			<radialGradient id="XMLID_23_" cx="107.2901" cy="495.4776" r="14.1674" gradientTransform="matrix(0.9542 -0.2991 0.2991 0.9542 -104.48 -167.7487)" gradientUnits="userSpaceOnUse">
			<stop  offset="0" style="stop-color:#FFE9CA"/>
			<stop  offset="0.5476" style="stop-color:#FCCA7D"/>
			<stop  offset="0.9525" style="stop-color:#D2B469"/>
		</radialGradient>
		<path id="XMLID_1351_" class="st21" d="M159.6,268.7c2.3,7.5-1.8,15.4-9.3,17.8c-7.5,2.3-15.4-1.8-17.8-9.3
			c-2.3-7.5,1.8-15.4,9.3-17.8C149.3,257.1,157.3,261.2,159.6,268.7z"/>
		
			<radialGradient id="XMLID_24_" cx="222.5434" cy="516.7535" r="14.1674" gradientTransform="matrix(0.9542 -0.2991 0.2991 0.9542 -104.48 -167.7487)" gradientUnits="userSpaceOnUse">
			<stop  offset="0" style="stop-color:#FFE9CA"/>
			<stop  offset="0.5476" style="stop-color:#FCCA7D"/>
			<stop  offset="0.9525" style="stop-color:#D2B469"/>
		</radialGradient>
		<path id="XMLID_1350_" class="st22" d="M276,254.5c2.3,7.5-1.8,15.4-9.3,17.8c-7.5,2.3-15.4-1.8-17.8-9.3
			c-2.3-7.5,1.8-15.4,9.3-17.8C265.7,242.9,273.6,247.1,276,254.5z"/>
		
			<radialGradient id="XMLID_25_" cx="189.4234" cy="421.0517" r="14.1673" gradientTransform="matrix(0.9542 -0.2991 0.2991 0.9542 -104.48 -167.7487)" gradientUnits="userSpaceOnUse">
			<stop  offset="0" style="stop-color:#FFE9CA"/>
			<stop  offset="0.5476" style="stop-color:#FCCA7D"/>
			<stop  offset="0.9525" style="stop-color:#D2B469"/>
		</radialGradient>
		<circle id="XMLID_1349_" class="st23" cx="202.2" cy="177.4" r="14.2"/>
		
			<radialGradient id="XMLID_26_" cx="184.6393" cy="506.1517" r="10.6027" gradientTransform="matrix(0.9542 -0.2991 0.2991 0.9542 -104.48 -167.7487)" gradientUnits="userSpaceOnUse">
			<stop  offset="0" style="stop-color:#FFE9CA"/>
			<stop  offset="0.5476" style="stop-color:#FCCA7D"/>
			<stop  offset="0.9525" style="stop-color:#D2B469"/>
		</radialGradient>
		<path id="XMLID_1348_" class="st24" d="M233.2,256.8c1.8,5.6-1.4,11.5-6.9,13.3c-5.6,1.8-11.5-1.4-13.3-6.9
			c-1.8-5.6,1.4-11.5,6.9-13.3C225.5,248.1,231.5,251.2,233.2,256.8z"/>
		
			<radialGradient id="XMLID_27_" cx="117.8944" cy="571.4862" r="10.6027" gradientTransform="matrix(0.9542 -0.2991 0.2991 0.9542 -104.48 -167.7487)" gradientUnits="userSpaceOnUse">
			<stop  offset="0" style="stop-color:#FFE9CA"/>
			<stop  offset="0.5476" style="stop-color:#FCCA7D"/>
			<stop  offset="0.9525" style="stop-color:#D2B469"/>
		</radialGradient>
		<path id="XMLID_1347_" class="st25" d="M189.1,339.1c1.8,5.6-1.4,11.5-6.9,13.3c-5.6,1.8-11.5-1.4-13.3-6.9
			c-1.8-5.6,1.4-11.5,6.9-13.3C181.4,330.4,187.3,333.5,189.1,339.1z"/>
		
			<radialGradient id="XMLID_28_" cx="117.8925" cy="471.5416" r="5.3015" gradientTransform="matrix(0.9542 -0.2991 0.2991 0.9542 -104.48 -167.7487)" gradientUnits="userSpaceOnUse">
			<stop  offset="0" style="stop-color:#FFE9CA"/>
			<stop  offset="0.5476" style="stop-color:#FCCA7D"/>
			<stop  offset="0.9525" style="stop-color:#D2B469"/>
		</radialGradient>
		<path id="XMLID_1346_" class="st26" d="M154.1,245.3c0.9,2.8-0.7,5.8-3.5,6.6c-2.8,0.9-5.8-0.7-6.6-3.5c-0.9-2.8,0.7-5.8,3.5-6.6
			C150.3,241,153.2,242.6,154.1,245.3z"/>
		
			<radialGradient id="XMLID_29_" cx="167.36" cy="444.0609" r="5.3014" gradientTransform="matrix(0.9542 -0.2991 0.2991 0.9542 -104.48 -167.7487)" gradientUnits="userSpaceOnUse">
			<stop  offset="0" style="stop-color:#FFE9CA"/>
			<stop  offset="0.5476" style="stop-color:#FCCA7D"/>
			<stop  offset="0.9525" style="stop-color:#D2B469"/>
		</radialGradient>
		<path id="XMLID_1345_" class="st27" d="M193.1,204.3c0.9,2.8-0.7,5.8-3.5,6.6c-2.8,0.9-5.8-0.7-6.6-3.5c-0.9-2.8,0.7-5.8,3.5-6.6
			C189.2,200,192.2,201.5,193.1,204.3z"/>
		
			<radialGradient id="XMLID_30_" cx="314.9613" cy="529.7538" r="5.3014" gradientTransform="matrix(0.9542 -0.2991 0.2991 0.9542 -104.48 -167.7487)" gradientUnits="userSpaceOnUse">
			<stop  offset="0" style="stop-color:#FFE9CA"/>
			<stop  offset="0.5476" style="stop-color:#FCCA7D"/>
			<stop  offset="0.9525" style="stop-color:#D2B469"/>
		</radialGradient>
		<path id="XMLID_1344_" class="st28" d="M359.6,242c0.9,2.8-0.7,5.8-3.5,6.6c-2.8,0.9-5.8-0.7-6.6-3.5c-0.9-2.8,0.7-5.8,3.5-6.6
			C355.7,237.6,358.7,239.2,359.6,242z"/>
		
			<radialGradient id="XMLID_31_" cx="288.8944" cy="436.0484" r="9.7418" gradientTransform="matrix(0.9542 -0.2991 0.2991 0.9542 -104.48 -167.7487)" gradientUnits="userSpaceOnUse">
			<stop  offset="0" style="stop-color:#FFE9CA"/>
			<stop  offset="0.5476" style="stop-color:#FCCA7D"/>
			<stop  offset="0.9525" style="stop-color:#D2B469"/>
		</radialGradient>
		<path id="XMLID_1343_" class="st29" d="M310.9,159c1.6,5.1-1.2,10.6-6.4,12.2c-5.1,1.6-10.6-1.2-12.2-6.4
			c-1.6-5.1,1.2-10.6,6.4-12.2C303.8,151,309.3,153.9,310.9,159z"/>
		
			<radialGradient id="XMLID_32_" cx="206.3067" cy="603.5252" r="9.7418" gradientTransform="matrix(0.9542 -0.2991 0.2991 0.9542 -104.48 -167.7487)" gradientUnits="userSpaceOnUse">
			<stop  offset="0" style="stop-color:#FFE9CA"/>
			<stop  offset="0.5476" style="stop-color:#FCCA7D"/>
			<stop  offset="0.9525" style="stop-color:#D2B469"/>
		</radialGradient>
		<path id="XMLID_1342_" class="st30" d="M282.2,343.5c1.6,5.1-1.2,10.6-6.4,12.2c-5.1,1.6-10.6-1.2-12.2-6.4
			c-1.6-5.1,1.2-10.6,6.4-12.2C275.1,335.5,280.6,338.4,282.2,343.5z"/>
		
			<radialGradient id="XMLID_33_" cx="237.2344" cy="403.6733" r="5.193" gradientTransform="matrix(0.9542 -0.2991 0.2991 0.9542 -104.48 -167.7487)" gradientUnits="userSpaceOnUse">
			<stop  offset="0" style="stop-color:#FFE9CA"/>
			<stop  offset="0.5476" style="stop-color:#FCCA7D"/>
			<stop  offset="0.9525" style="stop-color:#D2B469"/>
		</radialGradient>
		<path id="XMLID_1341_" class="st31" d="M247.6,144.9c0.9,2.7-0.7,5.7-3.4,6.5c-2.7,0.9-5.7-0.7-6.5-3.4c-0.9-2.7,0.7-5.7,3.4-6.5
			C243.8,140.7,246.7,142.2,247.6,144.9z"/>
		
			<radialGradient id="XMLID_34_" cx="108.432" cy="525.4146" r="189.7573" gradientTransform="matrix(0.9542 -0.2991 0.2991 0.9542 -104.48 -167.7487)" gradientUnits="userSpaceOnUse">
			<stop  offset="0.1141" style="stop-color:#FFE9CA"/>
			<stop  offset="0.6835" style="stop-color:#FCCA7D"/>
			<stop  offset="0.9525" style="stop-color:#D2B469"/>
		</radialGradient>
		<path id="XMLID_1338_" class="st32" d="M344.2,170.6c1.9,4.4,3.6,8.9,5.1,13.6c5.2,16.7,7.1,33.8,5.6,50.7
			c3.5,0.2,6.8,2.5,7.9,6.1c1.4,4.6-1.1,9.4-5.7,10.9c-1.6,0.5-3.3,0.5-4.9,0.1c-1.8,7.9-4.3,15.7-7.6,23.3
			c3.5,3.4,6.3,7.7,7.8,12.7c5,15.9-3.7,32.9-19.5,37.9c-8.2,2.6-16.6,1.4-23.6-2.6c-7.6,6.5-16.1,12.2-25.1,16.8
			c0.4,0.8,0.8,1.6,1.1,2.5c2.2,6.9-1.7,14.3-8.6,16.4c-6.9,2.2-14.3-1.7-16.4-8.6c-0.1-0.3-0.2-0.5-0.2-0.8
			c-23.1,6.6-47,6.8-69.7,0.7c-1.7,2.5-4.2,4.4-7.3,5.4c-7.4,2.3-15.2-1.8-17.5-9.2c-0.6-2-0.8-4-0.5-5.9c-0.6-0.3-1.2-0.6-1.7-0.9
			c-15.1-7.9-28.2-18.4-38.9-30.9c11.9,27.3,32.6,49.5,59.3,63.5c31.1,16.2,66.6,19.4,100,8.9c33.4-10.5,60.8-33.4,77-64.4
			c16.2-31.1,19.4-66.6,8.9-100C364.3,199.5,355.7,183.9,344.2,170.6z M256.6,377.2c-5.1,1.6-10.5-1.3-12.1-6.4
			c-1.6-5.1,1.2-10.6,6.3-12.2c5.1-1.6,10.5,1.3,12.1,6.4C264.5,370.1,261.7,375.6,256.6,377.2z"/>
		<path id="XMLID_1337_" class="st33" d="M140.9,176.3c9.7-8,21.5-1.1,17.2,11.7c-1.2,3.6-3.8,7-6.5,10.1
			c-3.6,4.2-7.6,8.1-11.7,10.3c-12.1,6.3-13.7-4.6-9.3-16.7C132.7,185.9,136.4,180.1,140.9,176.3z"/>
	</g>
	<g id="XMLID_1319_">
		<g id="XMLID_1333_">
			<radialGradient id="XMLID_35_" cx="113.3675" cy="327.5928" r="147.9684" gradientUnits="userSpaceOnUse">
				<stop  offset="0" style="stop-color:#ECECEC"/>
				<stop  offset="1" style="stop-color:#9C9B9B"/>
			</radialGradient>
			<path id="XMLID_1335_" class="st34" d="M89,317.7c0.1,0,0.2,0,0.3,0c-0.2-1.9-0.3-3.8-0.3-5.7c0-27.3,22.1-49.4,49.4-49.4
				c23.7,0,43.4,16.6,48.3,38.9c6-3.6,13-5.8,20.6-5.8c21.9,0,39.7,17.8,39.7,39.7c0,0.8-0.1,1.6-0.1,2.3c1.9-0.4,3.9-0.6,5.9-0.6
				c17.3,0,31.3,14,31.3,31.3c0,17.3-14,31.3-31.3,31.3c-4.4,0-8.6-0.9-12.4-2.6c-7.1,6.8-16.7,10.9-27.3,10.9
				c-1.3,0-2.6-0.1-3.9-0.2c-7.3,8.5-18.1,13.9-30.1,13.9c-9.8,0-18.8-3.6-25.7-9.5c-6.8,5.4-15.3,8.6-24.6,8.6
				c-16.3,0-30.4-9.9-36.5-24c-1.1,0.1-2.2,0.2-3.2,0.2c-21.9,0-39.7-17.8-39.7-39.7S67,317.7,89,317.7z"/>
			<path id="XMLID_1334_" class="st35" d="M184.2,293.4c-7.4-18.1-25.1-30.8-45.8-30.8c-27.3,0-49.4,22.1-49.4,49.4
				c0,1.9,0.1,3.8,0.3,5.7c-0.1,0-0.2,0-0.3,0c-21.9,0-39.7,17.8-39.7,39.7S67,397.2,89,397.2c0.1,0,0.1,0,0.2,0
				C139.7,387.4,178.8,345.4,184.2,293.4z"/>
		</g>
		<linearGradient id="XMLID_36_" gradientUnits="userSpaceOnUse" x1="219.5016" y1="302.7313" x2="396.6823" y2="302.7313">
			<stop  offset="0" style="stop-color:#D9D9D9"/>
			<stop  offset="1" style="stop-color:#FFFFFF"/>
		</linearGradient>
		<path id="XMLID_1332_" class="st36" d="M445.4,328.1c0.5-2.2,0.8-4.5,0.8-6.8c0-16.4-13.3-29.7-29.7-29.7c-2.7,0-5.4,0.4-7.9,1.1
			c-2.5-13.9-14.6-24.5-29.2-24.5c-0.4,0-0.9,0-1.3,0.1c-5-21.3-24.1-37.2-46.9-37.2c-26.6,0-48.2,21.6-48.2,48.2
			c0,5.1,0.8,9.9,2.2,14.5c-10.7,4.5-18.3,15.1-18.3,27.4c0,2.4,0.3,4.7,0.8,6.9h-25.1c-12.7,0-23.1,10.3-23.1,23.1l0,0
			c0,12.7,10.3,23.1,23.1,23.1h30.3h85.7h82c12.9,0,23.4-10.5,23.4-23.4l0,0C464,339.7,456,330.3,445.4,328.1z"/>
		<path id="XMLID_1331_" class="st37" d="M445.4,328.1c0.5-2.2,0.8-4.5,0.8-6.8c0-16.4-13.3-29.7-29.7-29.7c-2.7,0-5.4,0.4-7.9,1.1
			c-2.3-13.1-13.2-23.2-26.7-24.4c-3.6,44.8-28.5,83.5-64.6,106h41.4h82c12.9,0,23.4-10.5,23.4-23.4l0,0
			C464,339.7,456,330.3,445.4,328.1z"/>
		<path id="XMLID_1330_" class="st38" d="M440.8,312.5c1.6,6.3-5.1,11.4-10.6,7.3c-1.6-1.2-2.7-3.1-3.5-4.9
			c-1.2-2.5-2.2-5.2-2.3-7.7c-0.1-7.3,6-6.5,11.1-2.4C438,306.8,440.1,309.6,440.8,312.5z"/>
		<path id="XMLID_1329_" class="st39" d="M236,332.7c6.2-1.9,11.7,4.5,7.8,10.2c-1.1,1.6-2.9,2.8-4.7,3.8c-2.4,1.3-5.1,2.5-7.6,2.7
			c-7.2,0.5-6.8-5.7-2.9-11C230.4,335.8,233.1,333.6,236,332.7z"/>
		<path id="XMLID_1328_" class="st40" d="M316.2,238.3c8.9-2,16.2,7.7,10.2,15.4c-1.7,2.2-4.4,3.7-7,4.9c-3.6,1.6-7.4,3-10.9,2.9
			c-10.3-0.2-9.1-8.8-3.2-16C308,242.1,312,239.2,316.2,238.3z"/>
		<g id="XMLID_1326_">
			<radialGradient id="XMLID_37_" cx="341.9496" cy="323.7279" r="9.3826" gradientUnits="userSpaceOnUse">
				<stop  offset="0" style="stop-color:#3C3C3B"/>
				<stop  offset="1" style="stop-color:#1D1D1B"/>
			</radialGradient>
			<path id="XMLID_1327_" class="st41" d="M348.6,327.9c0,5.2-4.2,9.4-9.4,9.4c-5.2,0-9.4-4.2-9.4-9.4c0-5.2,4.2-9.4,9.4-9.4
				C344.4,318.5,348.6,322.7,348.6,327.9z"/>
		</g>
		<radialGradient id="XMLID_38_" cx="315.9363" cy="301.7552" r="15.8972" gradientUnits="userSpaceOnUse">
			<stop  offset="0" style="stop-color:#3C3C3B"/>
			<stop  offset="1" style="stop-color:#1D1D1B"/>
		</radialGradient>
		<path id="XMLID_1325_" class="st42" d="M323.8,296.7L323.8,296.7c0,4.2-3.4,7.6-7.6,7.6c-4.2,0-7.6-3.4-7.6-7.6l0,0h-2l0,0
			c0,5.3,4.3,9.6,9.6,9.6c5.3,0,9.6-4.3,9.6-9.6l0,0H323.8z"/>
		<radialGradient id="XMLID_39_" cx="366.9911" cy="301.7552" r="15.8972" gradientUnits="userSpaceOnUse">
			<stop  offset="0" style="stop-color:#3C3C3B"/>
			<stop  offset="1" style="stop-color:#1D1D1B"/>
		</radialGradient>
		<path id="XMLID_1324_" class="st43" d="M374.8,296.7L374.8,296.7c0,4.2-3.4,7.6-7.6,7.6c-4.2,0-7.6-3.4-7.6-7.6l0,0h-2l0,0
			c0,5.3,4.3,9.6,9.6,9.6c5.3,0,9.6-4.3,9.6-9.6l0,0H374.8z"/>
		<g id="XMLID_1322_">
			<radialGradient id="XMLID_40_" cx="144.159" cy="353.1641" r="9.3826" gradientUnits="userSpaceOnUse">
				<stop  offset="0" style="stop-color:#3C3C3B"/>
				<stop  offset="1" style="stop-color:#1D1D1B"/>
			</radialGradient>
			<path id="XMLID_1323_" class="st44" d="M150.8,357.4c0,5.2-4.2,9.4-9.4,9.4c-5.2,0-9.4-4.2-9.4-9.4s4.2-9.4,9.4-9.4
				C146.6,348,150.8,352.2,150.8,357.4z"/>
		</g>
		<radialGradient id="XMLID_41_" cx="118.1459" cy="331.1913" r="15.8973" gradientUnits="userSpaceOnUse">
			<stop  offset="0" style="stop-color:#3C3C3B"/>
			<stop  offset="1" style="stop-color:#1D1D1B"/>
		</radialGradient>
		<path id="XMLID_1321_" class="st45" d="M126,326.1L126,326.1c0,4.2-3.4,7.6-7.6,7.6c-4.2,0-7.6-3.4-7.6-7.6l0,0h-2l0,0
			c0,5.3,4.3,9.6,9.6,9.6c5.3,0,9.6-4.3,9.6-9.6l0,0H126z"/>
		<radialGradient id="XMLID_42_" cx="169.2004" cy="331.1913" r="15.8973" gradientUnits="userSpaceOnUse">
			<stop  offset="0" style="stop-color:#3C3C3B"/>
			<stop  offset="1" style="stop-color:#1D1D1B"/>
		</radialGradient>
		<path id="XMLID_1320_" class="st46" d="M177.1,326.1L177.1,326.1c0,4.2-3.4,7.6-7.6,7.6c-4.2,0-7.6-3.4-7.6-7.6l0,0h-2l0,0
			c0,5.3,4.3,9.6,9.6,9.6c5.3,0,9.6-4.3,9.6-9.6l0,0H177.1z"/>
	</g>
</g>
</svg>
