<?xml version="1.0" encoding="utf-8"?>
<!-- Generator: Adobe Illustrator 23.0.5, SVG Export Plug-In . SVG Version: 6.00 Build 0)  -->
<svg version="1.1" id="Layer_1" xmlns="http://www.w3.org/2000/svg" xmlns:xlink="http://www.w3.org/1999/xlink" x="0px" y="0px"
	 viewBox="0 0 512 512" style="enable-background:new 0 0 512 512;" xml:space="preserve">
<style type="text/css">
	.st0{fill:url(#XMLID_2_);}
	.st1{fill:#ECECEC;}
	.st2{fill:#D9D9D9;}
	.st3{fill:url(#XMLID_3_);}
	.st4{fill:url(#XMLID_4_);}
	.st5{fill:#F5F5F5;}
	.st6{fill:#FFFFFF;}
	.st7{fill:url(#XMLID_5_);}
	.st8{fill:url(#XMLID_6_);}
	.st9{fill:url(#XMLID_7_);}
	.st10{fill:url(#XMLID_8_);}
	.st11{fill:url(#XMLID_9_);}
	.st12{fill:url(#XMLID_10_);}
	.st13{fill:url(#XMLID_11_);}
	.st14{fill:url(#XMLID_12_);}
	.st15{fill:url(#XMLID_13_);}
	.st16{fill:url(#XMLID_14_);}
	.st17{fill:url(#XMLID_15_);}
</style>
<g id="XMLID_1747_">
	<radialGradient id="XMLID_2_" cx="113.1354" cy="183.7351" r="201.095" gradientUnits="userSpaceOnUse">
		<stop  offset="0" style="stop-color:#ECECEC"/>
		<stop  offset="1" style="stop-color:#9C9B9B"/>
	</radialGradient>
	<path id="XMLID_1782_" class="st0" d="M80,170.3c0.2,0,0.3,0,0.5,0c-0.3-2.6-0.5-5.1-0.5-7.8c0-37.1,30.1-67.2,67.2-67.2
		c32.2,0,59,22.6,65.6,52.8c8.2-5,17.7-7.9,27.9-7.9c29.8,0,54,24.2,54,54c0,1.1-0.1,2.1-0.2,3.2c2.6-0.5,5.2-0.8,8-0.8
		c23.5,0,42.6,19.1,42.6,42.6s-19.1,42.6-42.6,42.6c-6,0-11.7-1.2-16.8-3.5c-9.7,9.2-22.7,14.9-37.1,14.9c-1.8,0-3.5-0.1-5.2-0.3
		c-9.9,11.5-24.6,18.9-40.9,18.9c-13.3,0-25.5-4.9-34.9-12.9c-9.2,7.3-20.8,11.7-33.4,11.7c-22.2,0-41.3-13.4-49.6-32.6
		c-1.5,0.1-2.9,0.2-4.4,0.2c-29.8,0-54-24.2-54-54C26,194.5,50.2,170.3,80,170.3z"/>
	<path id="XMLID_1781_" class="st1" d="M209.4,137.2c-10-24.5-34.1-41.8-62.2-41.8c-37.1,0-67.2,30.1-67.2,67.2
		c0,2.6,0.2,5.2,0.5,7.8c-0.2,0-0.3,0-0.5,0c-29.8,0-54,24.2-54,54c0,29.8,24.2,54,54,54c0.1,0,0.2,0,0.3,0
		C149,265,202.1,207.9,209.4,137.2z"/>
	<path id="XMLID_1780_" class="st2" d="M50.7,188.1c8.4-2.6,15.9,6.1,10.6,13.9c-1.5,2.2-4,3.8-6.4,5.1c-3.3,1.8-6.9,3.4-10.3,3.6
		c-9.8,0.6-9.2-7.7-4-15C43.2,192.3,46.8,189.3,50.7,188.1z"/>
	<path id="XMLID_1779_" class="st2" d="M119.8,110.3c12.2-2.7,22,10.5,13.8,21c-2.3,3-6,5-9.5,6.6c-4.9,2.2-10,4-14.8,4
		c-14-0.2-12.4-12-4.4-21.8C108.6,115.5,114.1,111.6,119.8,110.3z"/>
	<linearGradient id="XMLID_3_" gradientUnits="userSpaceOnUse" x1="135.8092" y1="229.6187" x2="287.4652" y2="229.6187">
		<stop  offset="0" style="stop-color:#FFFFFF"/>
		<stop  offset="1" style="stop-color:#D9D9D9"/>
	</linearGradient>
	<path id="XMLID_1778_" class="st3" d="M345.1,239.3c0-23.5-19.1-42.6-42.6-42.6c-2.7,0-5.4,0.3-8,0.8c0.1-1.1,0.2-2.1,0.2-3.2
		c0-20.1-11-37.7-27.4-47c-26.3,8.5-45.3,33.2-45.3,62.3c0,6.9,1.1,13.5,3,19.7c-14.6,6.1-24.9,20.5-24.9,37.3
		c0,3.2,0.4,6.4,1.1,9.4h-34.2c-17.3,0-31.4,14-31.4,31.4l0,0c0,1.1,0.1,2.2,0.2,3.2c11.9-0.4,22.7-4.7,31.4-11.6
		c9.4,8,21.6,12.9,34.9,12.9c16.4,0,31-7.3,40.9-18.9c1.7,0.2,3.5,0.3,5.2,0.3c14.4,0,27.5-5.7,37.1-14.9c5.2,2.2,10.9,3.5,16.8,3.5
		C326,281.9,345.1,262.8,345.1,239.3z"/>
	<linearGradient id="XMLID_4_" gradientUnits="userSpaceOnUse" x1="153.7166" y1="250.5305" x2="394.5124" y2="250.5305">
		<stop  offset="0" style="stop-color:#D9D9D9"/>
		<stop  offset="1" style="stop-color:#FFFFFF"/>
	</linearGradient>
	<path id="XMLID_1777_" class="st4" d="M460.7,285c0.7-3,1.1-6.1,1.1-9.2c0-22.3-18.1-40.3-40.3-40.3c-3.7,0-7.3,0.5-10.7,1.5
		c-3.4-18.9-19.8-33.3-39.7-33.3c-0.6,0-1.2,0.1-1.8,0.1c-6.8-29-32.8-50.5-63.8-50.5c-36.2,0-65.6,29.3-65.6,65.6
		c0,6.9,1.1,13.5,3,19.7c-14.6,6.1-24.9,20.5-24.9,37.3c0,3.2,0.4,6.4,1.1,9.4h-34.2c-17.3,0-31.4,14-31.4,31.4l0,0
		c0,17.3,14,31.4,31.4,31.4h41.2h116.5h111.4c17.5,0,31.8-14.2,31.8-31.8l0,0C486,300.8,475.1,288,460.7,285z"/>
	<path id="XMLID_1776_" class="st1" d="M460.7,285c0.7-3,1.1-6.1,1.1-9.2c0-22.3-18.1-40.3-40.3-40.3c-3.7,0-7.3,0.5-10.7,1.5
		c-3.3-18.7-19.5-33-39.2-33.2c-1.2,63.2-38,117.7-91.2,144.2h62.5h111.4c17.5,0,31.8-14.2,31.8-31.8l0,0
		C486,300.8,475.1,288,460.7,285z"/>
	<path id="XMLID_1775_" class="st5" d="M454.5,263.8c2.2,8.5-6.9,15.5-14.4,9.9c-2.1-1.6-3.6-4.2-4.8-6.6c-1.7-3.4-3-7-3.1-10.4
		c-0.1-9.9,8.1-8.8,15.1-3.2C450.7,256,453.5,259.8,454.5,263.8z"/>
	<path id="XMLID_1774_" class="st5" d="M176.1,291.3c8.4-2.6,15.9,6.1,10.6,13.9c-1.5,2.2-4,3.8-6.4,5.1c-3.3,1.8-6.9,3.4-10.3,3.6
		c-9.8,0.6-9.2-7.7-4-15C168.6,295.5,172.2,292.5,176.1,291.3z"/>
	<path id="XMLID_1773_" class="st6" d="M285.1,162.9c12.2-2.7,22,10.5,13.8,21c-2.3,3-6,5-9.5,6.6c-4.9,2.2-10,4-14.8,4
		c-14-0.2-12.4-12-4.4-21.8C274,168.1,279.5,164.2,285.1,162.9z"/>
	<g id="XMLID_1770_">
		<radialGradient id="XMLID_5_" cx="294.9204" cy="254.3485" r="6.0467" gradientUnits="userSpaceOnUse">
			<stop  offset="0" style="stop-color:#3C3C3B"/>
			<stop  offset="1" style="stop-color:#1D1D1B"/>
		</radialGradient>
		<circle id="XMLID_1772_" class="st7" cx="292.7" cy="256.6" r="6"/>
		<radialGradient id="XMLID_6_" cx="371.8681" cy="253.871" r="6.0467" gradientUnits="userSpaceOnUse">
			<stop  offset="0" style="stop-color:#3C3C3B"/>
			<stop  offset="1" style="stop-color:#1D1D1B"/>
		</radialGradient>
		<circle id="XMLID_1771_" class="st8" cx="370.1" cy="256.6" r="6"/>
	</g>
	<g id="XMLID_1760_">
		<g id="XMLID_1767_">
			
				<radialGradient id="XMLID_7_" cx="143.9904" cy="375.8144" r="13.803" gradientTransform="matrix(1 0 0 1.376 0 -141.2912)" gradientUnits="userSpaceOnUse">
				<stop  offset="4.281480e-02" style="stop-color:#B9E2F9"/>
				<stop  offset="0.6495" style="stop-color:#89D1F5"/>
				<stop  offset="1" style="stop-color:#34A7DF"/>
			</radialGradient>
			<path id="XMLID_1769_" class="st9" d="M147.2,358.3c-0.5-0.9-1.8-0.9-2.3,0c-4.2,7.3-17.7,33.2,1.1,33.2S151.4,365.6,147.2,358.3
				z"/>
			<path id="XMLID_1768_" class="st5" d="M138.1,384.7c0-2.3,2.8-3.4,4.3-1.5c0.4,0.5,0.6,1.3,0.8,2c0.2,1,0.3,2,0.1,2.8
				c-0.6,2.5-2.6,1.6-4-0.2C138.5,386.9,138.1,385.7,138.1,384.7z"/>
		</g>
		<g id="XMLID_1764_">
			
				<radialGradient id="XMLID_8_" cx="270.522" cy="375.8144" r="13.8029" gradientTransform="matrix(1 0 0 1.376 0 -141.2912)" gradientUnits="userSpaceOnUse">
				<stop  offset="4.281480e-02" style="stop-color:#B9E2F9"/>
				<stop  offset="0.6495" style="stop-color:#89D1F5"/>
				<stop  offset="1" style="stop-color:#34A7DF"/>
			</radialGradient>
			<path id="XMLID_1766_" class="st10" d="M273.8,358.3c-0.5-0.9-1.8-0.9-2.3,0c-4.2,7.3-17.7,33.2,1.1,33.2
				C291.5,391.5,278,365.6,273.8,358.3z"/>
			<path id="XMLID_1765_" class="st5" d="M264.6,384.7c0-2.3,2.8-3.4,4.3-1.5c0.4,0.5,0.6,1.3,0.8,2c0.2,1,0.3,2,0.1,2.8
				c-0.6,2.5-2.6,1.6-4-0.2C265.1,386.9,264.6,385.7,264.6,384.7z"/>
		</g>
		<g id="XMLID_1761_">
			
				<radialGradient id="XMLID_9_" cx="195.9928" cy="400.9193" r="13.8031" gradientTransform="matrix(1 0 0 1.376 0 -150.7296)" gradientUnits="userSpaceOnUse">
				<stop  offset="4.281480e-02" style="stop-color:#B9E2F9"/>
				<stop  offset="0.6495" style="stop-color:#89D1F5"/>
				<stop  offset="1" style="stop-color:#34A7DF"/>
			</radialGradient>
			<path id="XMLID_1763_" class="st11" d="M199.2,383.4c-0.5-0.9-1.8-0.9-2.3,0c-4.2,7.3-17.7,33.2,1.1,33.2
				S203.4,390.7,199.2,383.4z"/>
			<path id="XMLID_1762_" class="st5" d="M190.1,409.8c0-2.3,2.8-3.4,4.3-1.5c0.4,0.5,0.6,1.3,0.8,2c0.2,1,0.3,2,0.1,2.8
				c-0.6,2.5-2.6,1.6-4-0.2C190.5,412,190.1,410.8,190.1,409.8z"/>
		</g>
	</g>
	<g id="XMLID_1753_">
		<g id="XMLID_1758_">
			
				<radialGradient id="XMLID_10_" cx="311.9182" cy="253.6717" r="31.532" gradientTransform="matrix(0.845 0 0 1 40.0426 0)" gradientUnits="userSpaceOnUse">
				<stop  offset="0" style="stop-color:#3C3C3B"/>
				<stop  offset="1" style="stop-color:#1D1D1B"/>
			</radialGradient>
			<rect id="XMLID_1759_" x="286.6" y="250.5" class="st12" width="35" height="5.9"/>
		</g>
		<g id="XMLID_1756_">
			
				<radialGradient id="XMLID_11_" cx="353.3202" cy="300.8872" r="31.532" gradientTransform="matrix(0.845 0 0 1 40.0426 0)" gradientUnits="userSpaceOnUse">
				<stop  offset="0" style="stop-color:#3C3C3B"/>
				<stop  offset="1" style="stop-color:#1D1D1B"/>
			</radialGradient>
			<rect id="XMLID_1757_" x="321.6" y="297.7" class="st13" width="35" height="5.9"/>
		</g>
		<g id="XMLID_1754_">
			
				<radialGradient id="XMLID_12_" cx="403.5454" cy="253.6717" r="31.5316" gradientTransform="matrix(0.845 0 0 1 40.0426 0)" gradientUnits="userSpaceOnUse">
				<stop  offset="0" style="stop-color:#3C3C3B"/>
				<stop  offset="1" style="stop-color:#1D1D1B"/>
			</radialGradient>
			<rect id="XMLID_1755_" x="364.1" y="250.5" class="st14" width="35" height="5.9"/>
		</g>
	</g>
	<g id="XMLID_1748_">
		<g id="XMLID_1750_">
			<radialGradient id="XMLID_13_" cx="101.3746" cy="189.8613" r="22.6034" gradientUnits="userSpaceOnUse">
				<stop  offset="0" style="stop-color:#3C3C3B"/>
				<stop  offset="1" style="stop-color:#1D1D1B"/>
			</radialGradient>
			<rect id="XMLID_1752_" x="87" y="187.6" class="st15" width="29.7" height="4.2"/>
			<radialGradient id="XMLID_14_" cx="186.1948" cy="189.8613" r="22.6031" gradientUnits="userSpaceOnUse">
				<stop  offset="0" style="stop-color:#3C3C3B"/>
				<stop  offset="1" style="stop-color:#1D1D1B"/>
			</radialGradient>
			<rect id="XMLID_1751_" x="171.8" y="187.6" class="st16" width="29.7" height="4.2"/>
		</g>
		<radialGradient id="XMLID_15_" cx="143.6544" cy="220.6201" r="31.8481" gradientUnits="userSpaceOnUse">
			<stop  offset="0.2927" style="stop-color:#3C3C3B"/>
			<stop  offset="1" style="stop-color:#1D1D1B"/>
		</radialGradient>
		<path id="XMLID_1749_" class="st17" d="M144.2,229.6c10.6,0,19.2-8.6,19.2-19.2H125C125,221,133.6,229.6,144.2,229.6z"/>
	</g>
</g>
</svg>
