<?xml version="1.0" encoding="utf-8"?>
<!-- Generator: Adobe Illustrator 23.0.5, SVG Export Plug-In . SVG Version: 6.00 Build 0)  -->
<svg version="1.1" id="Layer_1" xmlns="http://www.w3.org/2000/svg" xmlns:xlink="http://www.w3.org/1999/xlink" x="0px" y="0px"
	 viewBox="0 0 512 512" style="enable-background:new 0 0 512 512;" xml:space="preserve">
<style type="text/css">
	.st0{fill:#E9E9E7;}
	.st1{fill:#027E2A;}
	.st2{fill:#FAB440;}
	.st3{fill:#029432;}
	.st4{fill:#029532;}
	.st5{fill:#5F4623;}
	.st6{fill:#089736;}
	.st7{fill:#55B675;}
</style>
<g>
	<path class="st0" d="M177.4,293.7c1.1,0.7,2.4,0.9,3.8,0.9c16.5,0,32.9,0,50.4,0c-6.2-2.9-10-6.7-10.5-13
		c-0.6-8.3,5.6-14.9,14.1-15c9.3-0.1,18.7,0,28,0c1.7-1.5,3.8-1.4,5.8-1.4c24.1,0,48.2,0,72.3,0c2,0,4.1-0.2,5.8,1.4
		c8.7,0,17.4,0,26,0c1.6,0,3.2,0.1,4.6-0.9c4.2-0.7,8.4-0.6,12.6-0.2c8.1,0.6,14,7.2,14,15.1c0,7.9-6,14.5-14,15.1
		c-5.2,0.4-10.5,0.1-15.7,0.1c-9,0.2-17.9,0.2-26.9,0c-5.4-0.2-10.9,0.7-15.6-0.7c2.9,0.5,5.3,2.7,7.1,5.7c1.9,3.1,2.5,6.5,2,10.1
		c-1.1,7.1-6.9,12.5-14.5,12.9c-9.8,0.4-19.5,0.1-29.3,0.1c-4.2,0-8.4,0.4-13.4-0.8c9,2.3,15.3,11.2,15.4,20.6c0,5.6,0,5.6,5.8,5.6
		c14.1,0,28.3,0,42.4,0c9-0.2,18.1-0.2,27.1,0c11.8-0.1,23.6-0.2,35.4,0c7.1,0.1,12.5,4.3,14.5,10.6c2,6.2-0.1,12.7-5.3,16.8
		c-3,2.3-6.5,3.2-10.2,3.2c-8.4,0-16.9,0-25.3,0c-2.6,0-5.2,0.2-7.8,0.8c-9.9-1.5-19.9-0.7-29.9-0.5c-23.9-0.5-47.7-0.1-71.6-0.2
		c-3.3,0-6.7-0.7-10,0.4c-4.2-2.1-6.4-6.1-8.2-9.9c-1.6-3.5-3.4-4.8-7.2-4.7c-11.9,0.2-23.8,0.2-35.8,0c-3.4,0-5,1-5.4,4.6
		c-1,8.4-6.4,13.3-13.8,16.5c-36.9,0.3-73.7,0-110.6,0.2c-1.5,0-2.9,0.2-4.3-0.5c-2.7-1.8-5.6-0.8-8.5-0.8c-8.1-0.3-15-5.1-16.9-12
		c-2.4-8.9,0.5-16.5,8.2-20.9c2.8-1.6,6-2.1,9.2-2.1c8.3,0,16.6-0.1,24.9-0.1c3.4-0.8,5.5-2.4,4.7-6.5c-0.3-1.6,0.4-3.4,1.1-5
		c0.9-2.4,1.8-4.7,2.8-7.1c0.9-1.3,1.9-2.5,2.8-3.8c3.8-4.3,8.6-6.6,14.2-6.7c13.4-0.3,26.8-0.1,40.2-0.1c1.2,0,2.3,0.3,4,0.7
		c-3.6-1-5.6-3.2-7.2-5.9c-1.7-2.8-2.3-6-2-9.2c0.7-6.6,5.7-12,12.2-13.2C171.8,293.2,174.6,293.1,177.4,293.7z"/>
	<path class="st1" d="M375.1,294.6c4.6,0,9.3,0.1,13.9-0.1c7.8-0.2,13.9-6.2,14-13.8c0.1-7.8-6-13.8-14.1-14.2
		c-3.8-0.2-7.7,1.2-11.4-0.8c7.9-17.7,21.4-27.3,41-27c21.6,0.3,40,18.3,40.3,39.8c0.4,31.7,0.4,63.5,0,95.3
		c-0.2,19.4-15.3,35.7-34.8,39.2c-4.3,3.4-9.1,1.7-13.7,1.3c-16.6-3.4-28.3-12.8-34.1-28.9c-0.6-1.6-1.6-3.2-0.5-5
		c0.1-2.7,2.3-1.7,3.6-1.7c9.7-0.1,19.5,0,29.2-0.1c9.1,0,15.5-5.9,15.4-14.2c-0.1-8.1-6.4-13.8-15.3-13.8c-11.2,0-22.4,0-33.6,0
		c-1.6-1.6-1.5-3.7-1.5-5.7c0-14.8,0-29.6,0-44.5C373.6,298.3,373.5,296.2,375.1,294.6z"/>
	<path class="st2" d="M299.2,141.4c-11.8,13.4-26.6,20.4-44.5,20.2c-24.6-0.3-46.7-17.9-52.7-41.9c1.4-1.5,3.2-1.2,4.9-1.2
		c2.9-0.1,5.8,0.2,8.7-0.2c6.6-0.9,11.4-6.4,11.3-12.8c-0.1-6.3-4.8-11.5-11.3-12.4c-2.9-0.4-5.8-0.1-8.7-0.2
		c-1.7-0.1-3.5,0.3-4.9-1.2c5.6-22.5,24.5-38.8,48.5-41.8c21.9-2.7,45,9.8,55.3,30.1c0.7,1.3,1.3,2.6,2,3.9c-0.4,2.3-2.3,1.8-3.8,2
		c-2,0.2-4.1,0-6.1,0.1c-5.8,0.4-10.3,3.6-11.9,8.7c-1.7,5.4-0.2,10,4,13.8c1.3,1.2,4.1,2.1,3.4,4c-0.8,2.1-3.6,1.4-5.5,1.4
		c-5.7,0.1-11.3-0.1-17,0.1c-7.8,0.2-13.4,5.4-13.5,12.5c-0.1,7.3,5.5,12.7,13.5,12.9c7.7,0.2,15.4,0,23.1,0.1
		C295.8,139.4,298.2,138.8,299.2,141.4z"/>
	<path class="st0" d="M151.7,210.5c16.9,0,33.8,0,50.7,0c13.3,0,21.2,10.4,17.7,23.1c-1.9,6.9-8.9,11.8-17,11.9
		c-12.1,0-24.2,0.1-36.3,0c-2.4,0-3.5,0.4-2.6,3.1c0.7,2.2,1,4.5,1.5,6.7c-3,9.3-7.3,12.5-17.2,12.5c-12.6,0-25.3,0-37.9,0
		c-2,0-4.1,0.3-5.8-1.2c-10.1,0-20.1,0-30.2-0.1c-8.5,0-14.7-5.9-14.7-13.9c0-8.1,6.1-14,14.6-14c5.4,0,10.7,0,16.5,0
		c-3.4-6.8-4.5-13.3-0.4-19.8c3.5-5.6,8.6-8,15-8.2c5.5-0.1,11.1-0.1,16.6-0.1C132.1,208.3,141.9,208.3,151.7,210.5z"/>
	<path class="st1" d="M424,448.5c11.1,0,22.1,0.1,33.2,0.1c5.5,0,8.7,2.6,8.7,7c0,4.4-3.2,7-8.7,7c-134.2,0-268.4,0-402.6,0
		c-5.5,0-8.7-2.7-8.6-7.1c0-4.4,3.2-6.9,8.8-6.9c27.4-0.1,54.8-0.1,82.2-0.1c4.6-2.4,9.5-0.9,14.3-1.2c9.3-0.3,18.7-0.1,28-0.1
		c37.8,0,75.5,0,113.3,0c1.7,0,3.5-0.1,5.2,0.1c4.8-0.1,9.6-0.1,14.5,0c32.5-0.2,65-0.2,97.6,0C414.5,447.6,419.4,446.1,424,448.5z"
		/>
	<path class="st0" d="M299.2,141.4c-1.3-1.4-3-0.8-4.5-0.8c-8-0.1-16,0-24,0c-8.4-0.1-14.6-6.1-14.6-14.1c0-8,6.2-13.8,14.8-13.9
		c7.4-0.1,14.7,0,22.3,0c-0.6-1.6-1.9-1.7-2.8-2.3c-5.3-3.8-7.4-9.8-5.6-15.7c1.9-6.1,6.8-9.6,13.3-10c3.2-0.2,6.6,1.1,9.7-0.8
		c1.7,1.1,3.6,0.8,5.5,0.8c22.4,0,44.9,0,67.3,0c9.2,0,15.5,5.7,15.4,14.1c0,8.3-6.3,13.9-15.6,13.9c-14.3,0-28.6,0-43.8,0
		c4.5,2.3,7.9,4.8,9.4,9c3.3,9.4-3,18.8-13,18.9c-9.6,0.1-19.2,0-28.9,0C302.5,140.6,300.7,140.3,299.2,141.4z"/>
	<path class="st3" d="M346.9,266.6c-27.9,0-55.9,0-83.8,0c0.2-11.8-1.2-23.7,0.7-35.4c3.4-21.1,22.6-35.9,44.3-34.5
		c21,1.3,38.3,19,38.8,40.1C347.2,246.7,346.9,256.6,346.9,266.6z"/>
	<path class="st3" d="M104.9,266.7c14.4,0,28.9-0.2,43.3,0c7.9,0.1,13.6-2.5,16.3-10.3c0.1-0.4,0.9-0.7,1.3-1
		c3.9,12.8,7.7,25.6,11.6,38.3c-0.9,1.5-2.3,0.8-3.5,0.9c-8.5,0.2-14,4.1-15.6,11.1c-1.5,6.7,1.8,12.4,10.5,16.9c-2.3,0-3.5,0-4.6,0
		c-12.9,0-25.9,0.1-38.8-0.1c-7.1-0.1-13.1,1.9-18,7.1c-0.8,0.2-1.2,0-0.9-1c0.8-1.8,1.5-3.7,2.4-5.9c-6.9,0-13.6,0-20.7,0
		C93.7,303.7,99.3,285.2,104.9,266.7z"/>
	<path class="st3" d="M79.3,386.5c1.5-1.4,3.3-0.9,5-0.9c36-0.1,71.9-0.1,107.9-0.2c1.2,0,1.8,0.5,2.6,1.1c1.4,0.7,2.1,2,2.7,3.3
		c3,6.3,6,12.6,8.7,19c2.1,4.9,1.4,6-3.9,6c-17.2,0.1-34.3,0.1-51.5,0c-4.6-0.3-9.3,1.1-13.7-1.1c-23.1,0-46.2,0-69.9,0
		C71.3,404.3,75.3,395.4,79.3,386.5z"/>
	<path class="st0" d="M395.8,203.6c-6.8,0-13.7,0-20.5,0c-8.2-0.1-14.3-6-14.3-13.8c-0.1-8.1,6-14.1,14.5-14.1c0.4,0,0.9,0,1.3,0
		c2-0.1,4.6,0.5,5.9-0.5c1.4-1.1-0.6-3.4-0.7-5.2c-0.6-8.3,5.5-15.2,13.8-15.3c14.1-0.1,28.2-0.1,42.4,0c7.9,0.1,13.8,6.1,13.9,13.8
		c0.1,7.9-5.9,14-14,14.1c-0.6,0-1.2,0-1.7,0c-2,0.1-4.6-0.5-5.9,0.5c-1.4,1.1,0.6,3.4,0.7,5.2c0.6,8.3-5.5,15.1-13.8,15.3
		C410.1,203.7,403,203.6,395.8,203.6z"/>
	<path class="st0" d="M201.9,91.5c4.1,0,8.2,0,12.2,0.1c7.9,0.2,13.8,6.3,13.8,14c0,7.7-6,13.8-13.8,14c-4.1,0.1-8.2,0.1-12.2,0.1
		c-18.9,0-37.9,0-56.8-0.1c-8.9,0-15.1-5.8-15.1-14c0-8.2,6.2-14,15.1-14C164,91.6,183,91.6,201.9,91.5z"/>
	<path class="st4" d="M151.7,210.5c-9.8,0-19.7,0-29.5,0c4.7-15.8,9.4-31.5,14.2-47.3c0.4,0,0.7-0.1,1.1-0.1
		C142.3,178.9,147,194.7,151.7,210.5z"/>
	<path class="st5" d="M424,448.5c-4.7,0-9.4,0-14.1,0c-1.2-1.3-1.3-2.9-1.3-4.5c-0.1-8.9-0.1-17.7,0-26.6c0-1.6,0-3.2,1.3-4.5
		c4.7,1,9.4,0.9,14.1,0C424,424.8,424,436.6,424,448.5z"/>
	<path class="st5" d="M137,413.7c4.7,0,9.4,0,14,0c1.3,1.3,1.3,2.9,1.3,4.5c0.1,8.6,0.1,17.2,0,25.8c0,1.6-0.1,3.2-1.3,4.5
		c-4.7,0-9.4,0-14.1,0C137,436.9,137,425.3,137,413.7z"/>
	<path class="st6" d="M102,339c0.3,3.2-0.5,6.6,0.7,9.8c0.6,1.7-0.4,1.9-1.8,1.9c-1.6-0.1-3.1-0.1-4.7-0.1
		C98.1,346.6,99.3,342.4,102,339z"/>
	<path class="st7" d="M106.3,328.7c0.3,0.3,0.6,0.6,0.9,1c-0.4,1.2-1.2,2-2.5,2.3C105.1,330.7,105.3,329.5,106.3,328.7z"/>
	<path class="st3" d="M346.3,379.5c-4.5,18.3-15.7,29.7-34.3,33.5c-3.8,2.6-10.2,2.6-14,0c-18.2-3.7-29.4-14.9-34.2-32.6
		c0-1.6-0.3-3.5,2.4-2.4c2.1,0.9,4.3,0.6,6.5,0.6c23.1,0,46.2,0,69.3,0.1C343.4,378.6,345.1,377.8,346.3,379.5z"/>
	<path class="st3" d="M346.9,350.6c-15.4,0-30.9,0-46.3,0.1c-2.8,0-3.6-0.3-3-3.5c2.1-10.7-4.3-20.2-17-24.5c13.3,0,25.4,0,37.6,0
		c2.5,0,5,0,7.4,0c7-0.1,12.4-4.4,14-10.9c1.5-6.1-1.5-12.3-7.6-15.7c-0.6-0.3-1.1-0.6-2.5-1.4c6.4,0,11.9,0,17.4,0
		c1.6,1.6,1.5,3.7,1.5,5.7c0,14.8,0,29.6,0,44.5C348.4,346.8,348.5,348.9,346.9,350.6z"/>
	<path class="st5" d="M298,413c4.7,0.9,9.3,0.9,14,0c0,11.8,0,23.7,0,35.5c-4.7,0-9.4,0-14.1,0C298,436.6,298,424.8,298,413z"/>
</g>
</svg>
