<?xml version="1.0" encoding="utf-8"?>
<!-- Generator: Adobe Illustrator 23.0.5, SVG Export Plug-In . SVG Version: 6.00 Build 0)  -->
<svg version="1.1" id="Layer_1" xmlns="http://www.w3.org/2000/svg" xmlns:xlink="http://www.w3.org/1999/xlink" x="0px" y="0px"
	 viewBox="0 0 512 512" style="enable-background:new 0 0 512 512;" xml:space="preserve">
<style type="text/css">
	.st0{fill:url(#XMLID_2_);}
	.st1{fill:url(#XMLID_3_);}
	.st2{fill:url(#XMLID_4_);}
	.st3{fill:url(#XMLID_5_);}
	.st4{fill:url(#XMLID_6_);}
	.st5{fill:url(#XMLID_7_);}
	.st6{fill:url(#XMLID_8_);}
	.st7{fill:url(#XMLID_9_);}
	.st8{fill:url(#XMLID_10_);}
	.st9{fill:#ECECEC;}
	.st10{fill:#D9D9D9;}
	.st11{fill:url(#XMLID_11_);}
	.st12{fill:url(#XMLID_12_);}
	.st13{fill:#F5F5F5;}
	.st14{fill:#FFFFFF;}
	.st15{fill:url(#XMLID_13_);}
	.st16{fill:url(#XMLID_14_);}
	.st17{fill:url(#XMLID_15_);}
	.st18{fill:url(#XMLID_16_);}
	.st19{fill:url(#XMLID_17_);}
	.st20{fill:url(#XMLID_18_);}
</style>
<g id="XMLID_1711_">
	
		<radialGradient id="XMLID_2_" cx="4131.6904" cy="-1332.6608" r="69.1588" gradientTransform="matrix(-0.7071 0.7071 0.7071 0.7071 4305.5952 -1656.475)" gradientUnits="userSpaceOnUse">
		<stop  offset="4.281480e-02" style="stop-color:#B9E2F9"/>
		<stop  offset="0.6495" style="stop-color:#89D1F5"/>
		<stop  offset="1" style="stop-color:#34A7DF"/>
	</radialGradient>
	<path id="XMLID_1746_" class="st0" d="M474.4,356.5l1-1c1.4-1.4,1.4-3.6,0-5l-65.8-65.8c-1.4-1.4-3.6-1.4-5,0l-1,1
		c-1.4,1.4-1.4,3.6,0,5l65.8,65.8C470.8,357.9,473,357.9,474.4,356.5z"/>
	
		<radialGradient id="XMLID_3_" cx="4146.9097" cy="-1361.36" r="69.1586" gradientTransform="matrix(-0.7071 0.7071 0.7071 0.7071 4305.5952 -1656.475)" gradientUnits="userSpaceOnUse">
		<stop  offset="4.281480e-02" style="stop-color:#B9E2F9"/>
		<stop  offset="0.6495" style="stop-color:#89D1F5"/>
		<stop  offset="1" style="stop-color:#34A7DF"/>
	</radialGradient>
	<path id="XMLID_1743_" class="st1" d="M443.3,347l1-1c1.4-1.4,1.4-3.6,0-5l-65.8-65.8c-1.4-1.4-3.6-1.4-5,0l-1,1
		c-1.4,1.4-1.4,3.6,0,5l65.8,65.8C439.7,348.3,442,348.3,443.3,347z"/>
	
		<radialGradient id="XMLID_4_" cx="4223.0044" cy="-1375.5916" r="69.1586" gradientTransform="matrix(-0.7071 0.7071 0.7071 0.7071 4305.5952 -1656.475)" gradientUnits="userSpaceOnUse">
		<stop  offset="4.281480e-02" style="stop-color:#B9E2F9"/>
		<stop  offset="0.6495" style="stop-color:#89D1F5"/>
		<stop  offset="1" style="stop-color:#34A7DF"/>
	</radialGradient>
	<path id="XMLID_1741_" class="st2" d="M379.5,390.7l1-1c1.4-1.4,1.4-3.6,0-5l-65.8-65.8c-1.4-1.4-3.6-1.4-5,0l-1,1
		c-1.4,1.4-1.4,3.6,0,5l65.8,65.8C375.9,392.1,378.1,392.1,379.5,390.7z"/>
	
		<radialGradient id="XMLID_5_" cx="4177.3477" cy="-1345.6268" r="69.1586" gradientTransform="matrix(-0.7071 0.7071 0.7071 0.7071 4305.5952 -1656.475)" gradientUnits="userSpaceOnUse">
		<stop  offset="4.281480e-02" style="stop-color:#B9E2F9"/>
		<stop  offset="0.6495" style="stop-color:#89D1F5"/>
		<stop  offset="1" style="stop-color:#34A7DF"/>
	</radialGradient>
	<path id="XMLID_1740_" class="st3" d="M432.9,379.6l1-1c1.4-1.4,1.4-3.6,0-5L368,307.8c-1.4-1.4-3.6-1.4-5,0l-1,1
		c-1.4,1.4-1.4,3.6,0,5l65.8,65.8C429.3,381,431.6,381,432.9,379.6z"/>
	
		<radialGradient id="XMLID_6_" cx="4239.3843" cy="-1440.3546" r="69.1588" gradientTransform="matrix(-0.7071 0.7071 0.7071 0.7071 4305.5952 -1656.475)" gradientUnits="userSpaceOnUse">
		<stop  offset="4.281480e-02" style="stop-color:#B9E2F9"/>
		<stop  offset="0.6495" style="stop-color:#89D1F5"/>
		<stop  offset="1" style="stop-color:#34A7DF"/>
	</radialGradient>
	<path id="XMLID_1738_" class="st4" d="M322.1,356.5l1-1c1.4-1.4,1.4-3.6,0-5l-65.8-65.8c-1.4-1.4-3.6-1.4-5,0l-1,1
		c-1.4,1.4-1.4,3.6,0,5l65.8,65.8C318.5,357.9,320.7,357.9,322.1,356.5z"/>
	
		<radialGradient id="XMLID_7_" cx="4254.6035" cy="-1469.0537" r="69.1586" gradientTransform="matrix(-0.7071 0.7071 0.7071 0.7071 4305.5952 -1656.475)" gradientUnits="userSpaceOnUse">
		<stop  offset="4.281480e-02" style="stop-color:#B9E2F9"/>
		<stop  offset="0.6495" style="stop-color:#89D1F5"/>
		<stop  offset="1" style="stop-color:#34A7DF"/>
	</radialGradient>
	<path id="XMLID_1735_" class="st5" d="M291,347l1-1c1.4-1.4,1.4-3.6,0-5l-65.8-65.8c-1.4-1.4-3.6-1.4-5,0l-1,1
		c-1.4,1.4-1.4,3.6,0,5l65.8,65.8C287.4,348.3,289.7,348.3,291,347z"/>
	
		<radialGradient id="XMLID_8_" cx="4315.4795" cy="-1454.5863" r="69.1586" gradientTransform="matrix(-0.7071 0.7071 0.7071 0.7071 4305.5952 -1656.475)" gradientUnits="userSpaceOnUse">
		<stop  offset="4.281480e-02" style="stop-color:#B9E2F9"/>
		<stop  offset="0.6495" style="stop-color:#89D1F5"/>
		<stop  offset="1" style="stop-color:#34A7DF"/>
	</radialGradient>
	<path id="XMLID_1734_" class="st6" d="M258.2,400.2l1-1c1.4-1.4,1.4-3.6,0-5l-65.8-65.8c-1.4-1.4-3.6-1.4-5,0l-1,1
		c-1.4,1.4-1.4,3.6,0,5l65.8,65.8C254.6,401.6,256.8,401.6,258.2,400.2z"/>
	
		<radialGradient id="XMLID_9_" cx="4285.0415" cy="-1453.3206" r="69.1586" gradientTransform="matrix(-0.7071 0.7071 0.7071 0.7071 4305.5952 -1656.475)" gradientUnits="userSpaceOnUse">
		<stop  offset="4.281480e-02" style="stop-color:#B9E2F9"/>
		<stop  offset="0.6495" style="stop-color:#89D1F5"/>
		<stop  offset="1" style="stop-color:#34A7DF"/>
	</radialGradient>
	<path id="XMLID_1732_" class="st7" d="M280.6,379.6l1-1c1.4-1.4,1.4-3.6,0-5l-65.8-65.8c-1.4-1.4-3.6-1.4-5,0l-1,1
		c-1.4,1.4-1.4,3.6,0,5l65.8,65.8C277,381,279.3,381,280.6,379.6z"/>
	<radialGradient id="XMLID_10_" cx="112.9714" cy="189.1402" r="178.5131" gradientUnits="userSpaceOnUse">
		<stop  offset="0" style="stop-color:#ECECEC"/>
		<stop  offset="1" style="stop-color:#9C9B9B"/>
	</radialGradient>
	<path id="XMLID_1729_" class="st8" d="M83.5,177.2c0.1,0,0.3,0,0.4,0c-0.3-2.3-0.4-4.6-0.4-6.9c0-32.9,26.7-59.6,59.6-59.6
		c28.6,0,52.4,20.1,58.2,46.9c7.2-4.4,15.7-7,24.8-7c26.5,0,47.9,21.5,47.9,47.9c0,0.9-0.1,1.9-0.1,2.8c2.3-0.4,4.6-0.7,7.1-0.7
		c20.9,0,37.8,16.9,37.8,37.8s-16.9,37.8-37.8,37.8c-5.3,0-10.4-1.1-15-3.1c-8.6,8.2-20.2,13.2-33,13.2c-1.6,0-3.1-0.1-4.7-0.2
		c-8.8,10.2-21.8,16.7-36.3,16.7c-11.8,0-22.6-4.3-31-11.4c-8.2,6.5-18.5,10.4-29.7,10.4c-19.7,0-36.6-11.9-44-28.9
		c-1.3,0.1-2.6,0.2-3.9,0.2c-26.5,0-47.9-21.5-47.9-47.9C35.6,198.7,57.1,177.2,83.5,177.2z"/>
	<path id="XMLID_1728_" class="st9" d="M198.4,147.9c-8.9-21.8-30.3-37.1-55.2-37.1c-32.9,0-59.6,26.7-59.6,59.6
		c0,2.3,0.1,4.6,0.4,6.9c-0.1,0-0.3,0-0.4,0c-26.5,0-47.9,21.5-47.9,47.9c0,26.5,21.5,47.9,47.9,47.9c0.1,0,0.2,0,0.2,0
		C144.8,261.3,191.9,210.6,198.4,147.9z"/>
	<path id="XMLID_1727_" class="st10" d="M59.8,193c7.5-2.3,14.1,5.4,9.4,12.3c-1.3,2-3.5,3.4-5.7,4.6c-2.9,1.6-6.1,3-9.1,3.2
		c-8.7,0.6-8.2-6.8-3.5-13.3C53.1,196.8,56.3,194.1,59.8,193z"/>
	<path id="XMLID_1726_" class="st10" d="M122.8,119.4c10.8-2.4,19.5,9.3,12.3,18.6c-2,2.6-5.3,4.4-8.4,5.9c-4.3,2-8.9,3.6-13.2,3.5
		c-12.4-0.2-11-10.7-3.9-19.3C113,124,117.8,120.6,122.8,119.4z"/>
	<linearGradient id="XMLID_11_" gradientUnits="userSpaceOnUse" x1="133.099" y1="229.8713" x2="267.7248" y2="229.8713">
		<stop  offset="0" style="stop-color:#FFFFFF"/>
		<stop  offset="1" style="stop-color:#D9D9D9"/>
	</linearGradient>
	<path id="XMLID_1725_" class="st11" d="M318.9,238.5c0-20.9-16.9-37.8-37.8-37.8c-2.4,0-4.8,0.2-7.1,0.7c0.1-0.9,0.1-1.9,0.1-2.8
		c0-17.9-9.8-33.5-24.3-41.7c-23.3,7.6-40.2,29.5-40.2,55.3c0,6.1,0.9,12,2.7,17.5c-13,5.4-22.1,18.2-22.1,33.1c0,2.9,0.4,5.7,1,8.3
		h-30.3c-15.4,0-27.8,12.5-27.8,27.8l0,0c0,1,0,1.9,0.1,2.9c10.5-0.4,20.2-4.2,27.9-10.3c8.4,7.1,19.2,11.4,31,11.4
		c14.5,0,27.6-6.5,36.3-16.7c1.5,0.1,3.1,0.2,4.7,0.2c12.8,0,24.4-5,33-13.2c4.6,2,9.6,3.1,15,3.1
		C301.9,276.3,318.9,259.4,318.9,238.5z"/>
	<linearGradient id="XMLID_12_" gradientUnits="userSpaceOnUse" x1="148.9955" y1="248.4349" x2="362.7512" y2="248.4349">
		<stop  offset="0" style="stop-color:#D9D9D9"/>
		<stop  offset="1" style="stop-color:#FFFFFF"/>
	</linearGradient>
	<path id="XMLID_1724_" class="st12" d="M421.5,279c0.6-2.6,1-5.4,1-8.2c0-19.8-16-35.8-35.8-35.8c-3.3,0-6.5,0.5-9.5,1.3
		c-3-16.8-17.6-29.5-35.2-29.5c-0.5,0-1,0.1-1.6,0.1c-6-25.7-29.1-44.8-56.6-44.8c-32.1,0-58.2,26.1-58.2,58.2
		c0,6.1,0.9,12,2.7,17.5c-13,5.4-22.1,18.2-22.1,33.1c0,2.9,0.4,5.7,1,8.3h-30.3c-15.4,0-27.8,12.5-27.8,27.8l0,0
		c0,15.4,12.5,27.8,27.8,27.8h36.6h103.4h98.9c15.6,0,28.2-12.6,28.2-28.2l0,0C444,293,434.3,281.7,421.5,279z"/>
	<path id="XMLID_1723_" class="st9" d="M421.5,279c0.6-2.6,1-5.4,1-8.2c0-19.8-16-35.8-35.8-35.8c-3.3,0-6.5,0.5-9.5,1.3
		c-3-16.6-17.3-29.3-34.8-29.5c-1,56.1-33.7,104.5-80.9,128h55.4h98.9c15.6,0,28.2-12.6,28.2-28.2l0,0
		C444,293,434.3,281.7,421.5,279z"/>
	<path id="XMLID_1722_" class="st13" d="M416,260.2c1.9,7.6-6.1,13.8-12.8,8.8c-1.9-1.4-3.2-3.7-4.3-5.9c-1.5-3-2.7-6.3-2.7-9.3
		c-0.1-8.8,7.2-7.8,13.4-2.9C412.6,253.3,415.1,256.7,416,260.2z"/>
	<path id="XMLID_1721_" class="st13" d="M168.9,284.6c7.5-2.3,14.1,5.4,9.4,12.3c-1.3,2-3.5,3.4-5.7,4.6c-2.9,1.6-6.1,3-9.1,3.2
		c-8.7,0.6-8.2-6.8-3.5-13.3C162.2,288.4,165.4,285.7,168.9,284.6z"/>
	<path id="XMLID_1720_" class="st14" d="M265.7,170.7c10.8-2.4,19.5,9.3,12.3,18.6c-2,2.6-5.3,4.4-8.4,5.9c-4.3,2-8.9,3.6-13.2,3.5
		c-12.4-0.2-11-10.7-3.9-19.3C255.8,175.3,260.6,171.8,265.7,170.7z"/>
	<g id="XMLID_1717_">
		<radialGradient id="XMLID_13_" cx="274.3429" cy="251.8241" r="5.3677" gradientUnits="userSpaceOnUse">
			<stop  offset="0" style="stop-color:#3C3C3B"/>
			<stop  offset="1" style="stop-color:#1D1D1B"/>
		</radialGradient>
		<circle id="XMLID_1719_" class="st15" cx="272.4" cy="253.8" r="5.4"/>
		<radialGradient id="XMLID_14_" cx="342.6497" cy="251.4002" r="5.3677" gradientUnits="userSpaceOnUse">
			<stop  offset="0" style="stop-color:#3C3C3B"/>
			<stop  offset="1" style="stop-color:#1D1D1B"/>
		</radialGradient>
		<circle id="XMLID_1718_" class="st16" cx="341.1" cy="253.8" r="5.4"/>
	</g>
	<g id="XMLID_1714_">
		<radialGradient id="XMLID_15_" cx="109.8537" cy="189.9298" r="5.3675" gradientUnits="userSpaceOnUse">
			<stop  offset="0" style="stop-color:#3C3C3B"/>
			<stop  offset="1" style="stop-color:#1D1D1B"/>
		</radialGradient>
		<path id="XMLID_1716_" class="st17" d="M113.2,191.9c0,3-2.4,5.4-5.4,5.4c-3,0-5.4-2.4-5.4-5.4c0-3,2.4-5.4,5.4-5.4
			C110.8,186.5,113.2,188.9,113.2,191.9z"/>
		<radialGradient id="XMLID_16_" cx="178.1606" cy="189.5059" r="5.3675" gradientUnits="userSpaceOnUse">
			<stop  offset="0" style="stop-color:#3C3C3B"/>
			<stop  offset="1" style="stop-color:#1D1D1B"/>
		</radialGradient>
		<path id="XMLID_1715_" class="st18" d="M182,191.9c0,3-2.4,5.4-5.4,5.4c-3,0-5.4-2.4-5.4-5.4c0-3,2.4-5.4,5.4-5.4
			C179.6,186.5,182,188.9,182,191.9z"/>
	</g>
	
		<radialGradient id="XMLID_17_" cx="1122.557" cy="819.3024" r="28.2719" gradientTransform="matrix(1 0 0 1 -980.8268 -598.6596)" gradientUnits="userSpaceOnUse">
		<stop  offset="0.2927" style="stop-color:#3C3C3B"/>
		<stop  offset="1" style="stop-color:#1D1D1B"/>
	</radialGradient>
	<path id="XMLID_1713_" class="st19" d="M142.2,228.6c9.4,0,17-7.6,17-17h-34.1C125.2,221,132.8,228.6,142.2,228.6z"/>
	
		<radialGradient id="XMLID_18_" cx="1287.0779" cy="882.1475" r="28.2716" gradientTransform="matrix(1 0 0 1 -980.8268 -598.6596)" gradientUnits="userSpaceOnUse">
		<stop  offset="0.2927" style="stop-color:#3C3C3B"/>
		<stop  offset="1" style="stop-color:#1D1D1B"/>
	</radialGradient>
	<path id="XMLID_1712_" class="st20" d="M306.8,291.5c9.4,0,17-7.6,17-17h-34.1C289.7,283.8,297.4,291.5,306.8,291.5z"/>
</g>
</svg>
