<?xml version="1.0" encoding="utf-8"?>
<!-- Generator: Adobe Illustrator 23.0.5, SVG Export Plug-In . SVG Version: 6.00 Build 0)  -->
<svg version="1.1" id="Layer_1" xmlns="http://www.w3.org/2000/svg" xmlns:xlink="http://www.w3.org/1999/xlink" x="0px" y="0px"
	 viewBox="0 0 512 512" style="enable-background:new 0 0 512 512;" xml:space="preserve">
<style type="text/css">
	.st0{fill:url(#XMLID_2_);}
	.st1{fill:url(#XMLID_3_);}
	.st2{fill:url(#XMLID_4_);}
	.st3{fill:url(#XMLID_5_);}
	.st4{fill:url(#XMLID_6_);}
	.st5{fill:url(#XMLID_7_);}
	.st6{fill:url(#XMLID_8_);}
	.st7{fill:url(#XMLID_9_);}
	.st8{fill:url(#XMLID_10_);}
	.st9{fill:url(#XMLID_11_);}
	.st10{fill:url(#XMLID_12_);}
	.st11{fill:url(#XMLID_13_);}
	.st12{fill:url(#XMLID_14_);}
	.st13{fill:url(#XMLID_15_);}
	.st14{fill:url(#XMLID_16_);}
	.st15{fill:#ECECEC;}
	.st16{fill:#D9D9D9;}
	.st17{fill:url(#XMLID_17_);}
	.st18{fill:url(#XMLID_18_);}
	.st19{fill:#F5F5F5;}
	.st20{fill:#FFFFFF;}
	.st21{fill:url(#XMLID_19_);}
	.st22{fill:url(#XMLID_20_);}
	.st23{fill:url(#XMLID_21_);}
	.st24{fill:url(#XMLID_22_);}
	.st25{fill:url(#XMLID_23_);}
	.st26{fill:url(#XMLID_24_);}
</style>
<g id="XMLID_1711_">
	<g id="XMLID_1730_">
		<g id="XMLID_1739_">
			
				<radialGradient id="XMLID_2_" cx="4129.5439" cy="-1328.1074" r="70.9227" gradientTransform="matrix(-0.7071 0.7071 0.7071 0.7071 4305.5952 -1656.475)" gradientUnits="userSpaceOnUse">
				<stop  offset="4.281480e-02" style="stop-color:#B9E2F9"/>
				<stop  offset="0.6495" style="stop-color:#89D1F5"/>
				<stop  offset="1" style="stop-color:#34A7DF"/>
			</radialGradient>
			<path id="XMLID_1746_" class="st0" d="M480,359.1l1-1c1.4-1.4,1.4-3.7,0-5.1l-67.5-67.5c-1.4-1.4-3.7-1.4-5.1,0l-1,1
				c-1.4,1.4-1.4,3.7,0,5.1l67.5,67.5C476.3,360.5,478.6,360.5,480,359.1z"/>
			
				<radialGradient id="XMLID_3_" cx="4191.9722" cy="-1330.1682" r="70.9227" gradientTransform="matrix(-0.7071 0.7071 0.7071 0.7071 4305.5952 -1656.475)" gradientUnits="userSpaceOnUse">
				<stop  offset="4.281480e-02" style="stop-color:#B9E2F9"/>
				<stop  offset="0.6495" style="stop-color:#89D1F5"/>
				<stop  offset="1" style="stop-color:#34A7DF"/>
			</radialGradient>
			<path id="XMLID_1745_" class="st1" d="M434.4,401.7l1-1c1.4-1.4,1.4-3.7,0-5.1l-67.5-67.5c-1.4-1.4-3.7-1.4-5.1,0l-1,1
				c-1.4,1.4-1.4,3.7,0,5.1l67.5,67.5C430.7,403.2,433,403.2,434.4,401.7z"/>
			
				<radialGradient id="XMLID_4_" cx="4160.7583" cy="-1309.8732" r="70.9225" gradientTransform="matrix(-0.7071 0.7071 0.7071 0.7071 4305.5952 -1656.475)" gradientUnits="userSpaceOnUse">
				<stop  offset="4.281480e-02" style="stop-color:#B9E2F9"/>
				<stop  offset="0.6495" style="stop-color:#89D1F5"/>
				<stop  offset="1" style="stop-color:#34A7DF"/>
			</radialGradient>
			<path id="XMLID_1744_" class="st2" d="M470.8,394l1-1c1.4-1.4,1.4-3.7,0-5.1l-67.5-67.5c-1.4-1.4-3.7-1.4-5.1,0l-1,1
				c-1.4,1.4-1.4,3.7,0,5.1l67.5,67.5C467.1,395.4,469.4,395.4,470.8,394z"/>
			
				<radialGradient id="XMLID_5_" cx="4145.1509" cy="-1357.5386" r="70.9225" gradientTransform="matrix(-0.7071 0.7071 0.7071 0.7071 4305.5952 -1656.475)" gradientUnits="userSpaceOnUse">
				<stop  offset="4.281480e-02" style="stop-color:#B9E2F9"/>
				<stop  offset="0.6495" style="stop-color:#89D1F5"/>
				<stop  offset="1" style="stop-color:#34A7DF"/>
			</radialGradient>
			<path id="XMLID_1743_" class="st3" d="M448.1,349.3l1-1c1.4-1.4,1.4-3.7,0-5.1l-67.5-67.5c-1.4-1.4-3.7-1.4-5.1,0l-1,1
				c-1.4,1.4-1.4,3.7,0,5.1l67.5,67.5C444.4,350.7,446.7,350.7,448.1,349.3z"/>
			
				<radialGradient id="XMLID_6_" cx="4207.5796" cy="-1342.7021" r="70.9225" gradientTransform="matrix(-0.7071 0.7071 0.7071 0.7071 4305.5952 -1656.475)" gradientUnits="userSpaceOnUse">
				<stop  offset="4.281480e-02" style="stop-color:#B9E2F9"/>
				<stop  offset="0.6495" style="stop-color:#89D1F5"/>
				<stop  offset="1" style="stop-color:#34A7DF"/>
			</radialGradient>
			<path id="XMLID_1742_" class="st4" d="M414.5,403.9l1-1c1.4-1.4,1.4-3.7,0-5.1l-67.5-67.5c-1.4-1.4-3.7-1.4-5.1,0l-1,1
				c-1.4,1.4-1.4,3.7,0,5.1l67.5,67.5C410.8,405.3,413.1,405.3,414.5,403.9z"/>
			
				<radialGradient id="XMLID_7_" cx="4223.1865" cy="-1372.1332" r="70.9225" gradientTransform="matrix(-0.7071 0.7071 0.7071 0.7071 4305.5952 -1656.475)" gradientUnits="userSpaceOnUse">
				<stop  offset="4.281480e-02" style="stop-color:#B9E2F9"/>
				<stop  offset="0.6495" style="stop-color:#89D1F5"/>
				<stop  offset="1" style="stop-color:#34A7DF"/>
			</radialGradient>
			<path id="XMLID_1741_" class="st5" d="M382.6,394.1l1-1c1.4-1.4,1.4-3.7,0-5.1l-67.5-67.5c-1.4-1.4-3.7-1.4-5.1,0l-1,1
				c-1.4,1.4-1.4,3.7,0,5.1l67.5,67.5C378.9,395.5,381.2,395.5,382.6,394.1z"/>
			
				<radialGradient id="XMLID_8_" cx="4176.3652" cy="-1341.4042" r="70.9225" gradientTransform="matrix(-0.7071 0.7071 0.7071 0.7071 4305.5952 -1656.475)" gradientUnits="userSpaceOnUse">
				<stop  offset="4.281480e-02" style="stop-color:#B9E2F9"/>
				<stop  offset="0.6495" style="stop-color:#89D1F5"/>
				<stop  offset="1" style="stop-color:#34A7DF"/>
			</radialGradient>
			<path id="XMLID_1740_" class="st6" d="M437.4,382.8l1-1c1.4-1.4,1.4-3.7,0-5.1l-67.5-67.5c-1.4-1.4-3.7-1.4-5.1,0l-1,1
				c-1.4,1.4-1.4,3.7,0,5.1l67.5,67.5C433.8,384.2,436,384.2,437.4,382.8z"/>
		</g>
		<g id="XMLID_1731_">
			
				<radialGradient id="XMLID_9_" cx="4239.9844" cy="-1438.548" r="70.9227" gradientTransform="matrix(-0.7071 0.7071 0.7071 0.7071 4305.5952 -1656.475)" gradientUnits="userSpaceOnUse">
				<stop  offset="4.281480e-02" style="stop-color:#B9E2F9"/>
				<stop  offset="0.6495" style="stop-color:#89D1F5"/>
				<stop  offset="1" style="stop-color:#34A7DF"/>
			</radialGradient>
			<path id="XMLID_1738_" class="st7" d="M323.8,359.1l1-1c1.4-1.4,1.4-3.7,0-5.1l-67.5-67.5c-1.4-1.4-3.7-1.4-5.1,0l-1,1
				c-1.4,1.4-1.4,3.7,0,5.1l67.5,67.5C320.1,360.5,322.4,360.5,323.8,359.1z"/>
			
				<radialGradient id="XMLID_10_" cx="4302.4131" cy="-1440.6086" r="70.9227" gradientTransform="matrix(-0.7071 0.7071 0.7071 0.7071 4305.5952 -1656.475)" gradientUnits="userSpaceOnUse">
				<stop  offset="4.281480e-02" style="stop-color:#B9E2F9"/>
				<stop  offset="0.6495" style="stop-color:#89D1F5"/>
				<stop  offset="1" style="stop-color:#34A7DF"/>
			</radialGradient>
			<path id="XMLID_1737_" class="st8" d="M278.2,401.7l1-1c1.4-1.4,1.4-3.7,0-5.1l-67.5-67.5c-1.4-1.4-3.7-1.4-5.1,0l-1,1
				c-1.4,1.4-1.4,3.7,0,5.1l67.5,67.5C274.5,403.2,276.8,403.2,278.2,401.7z"/>
			
				<radialGradient id="XMLID_11_" cx="4271.1987" cy="-1420.3136" r="70.9225" gradientTransform="matrix(-0.7071 0.7071 0.7071 0.7071 4305.5952 -1656.475)" gradientUnits="userSpaceOnUse">
				<stop  offset="4.281480e-02" style="stop-color:#B9E2F9"/>
				<stop  offset="0.6495" style="stop-color:#89D1F5"/>
				<stop  offset="1" style="stop-color:#34A7DF"/>
			</radialGradient>
			<path id="XMLID_1736_" class="st9" d="M314.6,394l1-1c1.4-1.4,1.4-3.7,0-5.1l-67.5-67.5c-1.4-1.4-3.7-1.4-5.1,0l-1,1
				c-1.4,1.4-1.4,3.7,0,5.1l67.5,67.5C310.9,395.4,313.2,395.4,314.6,394z"/>
			
				<radialGradient id="XMLID_12_" cx="4255.5913" cy="-1467.9791" r="70.9225" gradientTransform="matrix(-0.7071 0.7071 0.7071 0.7071 4305.5952 -1656.475)" gradientUnits="userSpaceOnUse">
				<stop  offset="4.281480e-02" style="stop-color:#B9E2F9"/>
				<stop  offset="0.6495" style="stop-color:#89D1F5"/>
				<stop  offset="1" style="stop-color:#34A7DF"/>
			</radialGradient>
			<path id="XMLID_1735_" class="st10" d="M291.9,349.3l1-1c1.4-1.4,1.4-3.7,0-5.1l-67.5-67.5c-1.4-1.4-3.7-1.4-5.1,0l-1,1
				c-1.4,1.4-1.4,3.7,0,5.1l67.5,67.5C288.2,350.7,290.5,350.7,291.9,349.3z"/>
			
				<radialGradient id="XMLID_13_" cx="4318.02" cy="-1453.1427" r="70.9225" gradientTransform="matrix(-0.7071 0.7071 0.7071 0.7071 4305.5952 -1656.475)" gradientUnits="userSpaceOnUse">
				<stop  offset="4.281480e-02" style="stop-color:#B9E2F9"/>
				<stop  offset="0.6495" style="stop-color:#89D1F5"/>
				<stop  offset="1" style="stop-color:#34A7DF"/>
			</radialGradient>
			<path id="XMLID_1734_" class="st11" d="M258.3,403.9l1-1c1.4-1.4,1.4-3.7,0-5.1l-67.5-67.5c-1.4-1.4-3.7-1.4-5.1,0l-1,1
				c-1.4,1.4-1.4,3.7,0,5.1l67.5,67.5C254.6,405.3,256.9,405.3,258.3,403.9z"/>
			
				<radialGradient id="XMLID_14_" cx="4333.627" cy="-1482.5736" r="70.9225" gradientTransform="matrix(-0.7071 0.7071 0.7071 0.7071 4305.5952 -1656.475)" gradientUnits="userSpaceOnUse">
				<stop  offset="4.281480e-02" style="stop-color:#B9E2F9"/>
				<stop  offset="0.6495" style="stop-color:#89D1F5"/>
				<stop  offset="1" style="stop-color:#34A7DF"/>
			</radialGradient>
			<path id="XMLID_1733_" class="st12" d="M226.4,394.1l1-1c1.4-1.4,1.4-3.7,0-5.1l-67.5-67.5c-1.4-1.4-3.7-1.4-5.1,0l-1,1
				c-1.4,1.4-1.4,3.7,0,5.1l67.5,67.5C222.7,395.5,225,395.5,226.4,394.1z"/>
			
				<radialGradient id="XMLID_15_" cx="4286.8057" cy="-1451.8446" r="70.9225" gradientTransform="matrix(-0.7071 0.7071 0.7071 0.7071 4305.5952 -1656.475)" gradientUnits="userSpaceOnUse">
				<stop  offset="4.281480e-02" style="stop-color:#B9E2F9"/>
				<stop  offset="0.6495" style="stop-color:#89D1F5"/>
				<stop  offset="1" style="stop-color:#34A7DF"/>
			</radialGradient>
			<path id="XMLID_1732_" class="st13" d="M281.3,382.8l1-1c1.4-1.4,1.4-3.7,0-5.1l-67.5-67.5c-1.4-1.4-3.7-1.4-5.1,0l-1,1
				c-1.4,1.4-1.4,3.7,0,5.1l67.5,67.5C277.6,384.2,279.9,384.2,281.3,382.8z"/>
		</g>
	</g>
	<radialGradient id="XMLID_16_" cx="109.3234" cy="187.4349" r="183.0661" gradientUnits="userSpaceOnUse">
		<stop  offset="0" style="stop-color:#ECECEC"/>
		<stop  offset="1" style="stop-color:#9C9B9B"/>
	</radialGradient>
	<path id="XMLID_1729_" class="st14" d="M79.1,175.2c0.1,0,0.3,0,0.4,0c-0.3-2.3-0.4-4.7-0.4-7.1c0-33.8,27.4-61.2,61.2-61.2
		c29.3,0,53.7,20.6,59.7,48.1c7.4-4.5,16.1-7.2,25.4-7.2c27.1,0,49.1,22,49.1,49.1c0,1-0.1,1.9-0.1,2.9c2.3-0.4,4.8-0.7,7.2-0.7
		c21.4,0,38.8,17.4,38.8,38.8s-17.4,38.8-38.8,38.8c-5.4,0-10.6-1.1-15.3-3.2c-8.8,8.4-20.7,13.5-33.8,13.5c-1.6,0-3.2-0.1-4.8-0.2
		c-9,10.5-22.4,17.2-37.3,17.2c-12.1,0-23.2-4.4-31.8-11.7c-8.4,6.6-18.9,10.6-30.5,10.6c-20.2,0-37.6-12.2-45.1-29.7
		c-1.3,0.1-2.7,0.2-4,0.2c-27.1,0-49.1-22-49.1-49.1C30,197.2,52,175.2,79.1,175.2z"/>
	<path id="XMLID_1728_" class="st15" d="M196.9,145.1c-9.1-22.3-31-38.1-56.6-38.1c-33.8,0-61.2,27.4-61.2,61.2
		c0,2.4,0.2,4.8,0.4,7.1c-0.1,0-0.3,0-0.4,0c-27.1,0-49.1,22-49.1,49.1c0,27.1,22,49.1,49.1,49.1c0.1,0,0.2,0,0.2,0
		C141.9,261.4,190.3,209.5,196.9,145.1z"/>
	<path id="XMLID_1727_" class="st16" d="M54.8,191.4c7.7-2.4,14.4,5.5,9.7,12.6c-1.4,2-3.6,3.5-5.8,4.7c-3,1.7-6.3,3.1-9.3,3.3
		c-9,0.6-8.4-7-3.6-13.6C47.9,195.3,51.2,192.5,54.8,191.4z"/>
	<path id="XMLID_1726_" class="st16" d="M119.4,115.9c11.1-2.5,20,9.5,12.6,19.1c-2.1,2.7-5.4,4.5-8.6,6c-4.4,2-9.1,3.7-13.5,3.6
		c-12.7-0.2-11.3-10.9-4-19.8C109.3,120.7,114.3,117.1,119.4,115.9z"/>
	<linearGradient id="XMLID_17_" gradientUnits="userSpaceOnUse" x1="129.9644" y1="229.2049" x2="268.0239" y2="229.2049">
		<stop  offset="0" style="stop-color:#FFFFFF"/>
		<stop  offset="1" style="stop-color:#D9D9D9"/>
	</linearGradient>
	<path id="XMLID_1725_" class="st17" d="M320.5,238c0-21.4-17.4-38.8-38.8-38.8c-2.5,0-4.9,0.3-7.2,0.7c0.1-1,0.1-1.9,0.1-2.9
		c0-18.3-10.1-34.3-24.9-42.8c-23.9,7.8-41.2,30.2-41.2,56.8c0,6.3,1,12.3,2.8,18c-13.3,5.5-22.6,18.6-22.6,33.9
		c0,2.9,0.4,5.8,1,8.6h-31.1c-15.8,0-28.5,12.8-28.5,28.5l0,0c0,1,0.1,2,0.1,2.9c10.8-0.4,20.7-4.3,28.6-10.6
		c8.6,7.3,19.7,11.7,31.8,11.7c14.9,0,28.3-6.7,37.3-17.2c1.6,0.2,3.2,0.2,4.8,0.2c13.1,0,25-5.2,33.8-13.5c4.7,2,9.9,3.2,15.3,3.2
		C303.1,276.8,320.5,259.4,320.5,238z"/>
	<linearGradient id="XMLID_18_" gradientUnits="userSpaceOnUse" x1="146.2663" y1="248.2419" x2="365.4739" y2="248.2419">
		<stop  offset="0" style="stop-color:#D9D9D9"/>
		<stop  offset="1" style="stop-color:#FFFFFF"/>
	</linearGradient>
	<path id="XMLID_1724_" class="st18" d="M425.7,279.6c0.6-2.7,1-5.5,1-8.4c0-20.3-16.4-36.7-36.7-36.7c-3.4,0-6.7,0.5-9.8,1.4
		c-3.1-17.2-18-30.3-36.1-30.3c-0.5,0-1.1,0.1-1.6,0.1c-6.2-26.4-29.8-46-58.1-46c-33,0-59.7,26.7-59.7,59.7c0,6.3,1,12.3,2.8,18
		c-13.3,5.5-22.6,18.6-22.6,33.9c0,2.9,0.4,5.8,1,8.6h-31.1c-15.8,0-28.5,12.8-28.5,28.5l0,0c0,15.8,12.8,28.5,28.5,28.5h37.5h106.1
		h101.4c16,0,28.9-12.9,28.9-28.9l0,0C448.8,294,438.9,282.3,425.7,279.6z"/>
	<path id="XMLID_1723_" class="st15" d="M425.7,279.6c0.6-2.7,1-5.5,1-8.4c0-20.3-16.4-36.7-36.7-36.7c-3.4,0-6.7,0.5-9.8,1.4
		c-3-17.1-17.8-30-35.7-30.3c-1.1,57.5-34.6,107.1-83,131.3h56.9h101.4c16,0,28.9-12.9,28.9-28.9l0,0
		C448.8,294,438.9,282.3,425.7,279.6z"/>
	<path id="XMLID_1722_" class="st19" d="M420.1,260.3c2,7.8-6.2,14.2-13.1,9c-1.9-1.5-3.3-3.8-4.4-6c-1.5-3.1-2.8-6.4-2.8-9.5
		c-0.1-9,7.4-8,13.8-2.9C416.6,253.2,419.2,256.7,420.1,260.3z"/>
	<path id="XMLID_1721_" class="st19" d="M166.7,285.3c7.7-2.4,14.4,5.5,9.7,12.6c-1.4,2-3.6,3.5-5.8,4.7c-3,1.7-6.3,3.1-9.3,3.3
		c-9,0.6-8.4-7-3.6-13.6C159.8,289.2,163.1,286.4,166.7,285.3z"/>
	<path id="XMLID_1720_" class="st20" d="M265.9,168.5c11.1-2.5,20,9.5,12.6,19.1c-2.1,2.7-5.4,4.5-8.6,6c-4.4,2-9.1,3.7-13.5,3.6
		c-12.7-0.2-11.3-10.9-4-19.8C255.8,173.2,260.7,169.6,265.9,168.5z"/>
	<g id="XMLID_1717_">
		<radialGradient id="XMLID_19_" cx="274.8107" cy="251.7176" r="5.5046" gradientUnits="userSpaceOnUse">
			<stop  offset="0" style="stop-color:#3C3C3B"/>
			<stop  offset="1" style="stop-color:#1D1D1B"/>
		</radialGradient>
		<circle id="XMLID_1719_" class="st21" cx="272.8" cy="253.7" r="5.5"/>
		<radialGradient id="XMLID_20_" cx="344.8598" cy="251.2829" r="5.5046" gradientUnits="userSpaceOnUse">
			<stop  offset="0" style="stop-color:#3C3C3B"/>
			<stop  offset="1" style="stop-color:#1D1D1B"/>
		</radialGradient>
		<circle id="XMLID_1718_" class="st22" cx="343.3" cy="253.7" r="5.5"/>
	</g>
	<g id="XMLID_1714_">
		<radialGradient id="XMLID_21_" cx="106.1262" cy="188.2446" r="5.5044" gradientUnits="userSpaceOnUse">
			<stop  offset="0" style="stop-color:#3C3C3B"/>
			<stop  offset="1" style="stop-color:#1D1D1B"/>
		</radialGradient>
		<path id="XMLID_1716_" class="st23" d="M109.6,190.3c0,3-2.5,5.5-5.5,5.5c-3,0-5.5-2.5-5.5-5.5c0-3,2.5-5.5,5.5-5.5
			C107.1,184.8,109.6,187.2,109.6,190.3z"/>
		<radialGradient id="XMLID_22_" cx="176.1753" cy="187.8099" r="5.5044" gradientUnits="userSpaceOnUse">
			<stop  offset="0" style="stop-color:#3C3C3B"/>
			<stop  offset="1" style="stop-color:#1D1D1B"/>
		</radialGradient>
		<path id="XMLID_1715_" class="st24" d="M180.1,190.3c0,3-2.5,5.5-5.5,5.5c-3,0-5.5-2.5-5.5-5.5c0-3,2.5-5.5,5.5-5.5
			C177.6,184.8,180.1,187.2,180.1,190.3z"/>
	</g>
	
		<radialGradient id="XMLID_23_" cx="1119.6426" cy="818.4006" r="28.993" gradientTransform="matrix(1 0 0 1 -980.8268 -598.6596)" gradientUnits="userSpaceOnUse">
		<stop  offset="0.2927" style="stop-color:#3C3C3B"/>
		<stop  offset="1" style="stop-color:#1D1D1B"/>
	</radialGradient>
	<path id="XMLID_1713_" class="st25" d="M139.3,227.9c9.6,0,17.5-7.8,17.5-17.5h-34.9C121.9,220.1,129.7,227.9,139.3,227.9z"/>
	
		<radialGradient id="XMLID_24_" cx="1288.3595" cy="882.8486" r="28.9927" gradientTransform="matrix(1 0 0 1 -980.8268 -598.6596)" gradientUnits="userSpaceOnUse">
		<stop  offset="0.2927" style="stop-color:#3C3C3B"/>
		<stop  offset="1" style="stop-color:#1D1D1B"/>
	</radialGradient>
	<path id="XMLID_1712_" class="st26" d="M308.1,292.4c9.6,0,17.5-7.8,17.5-17.5h-34.9C290.6,284.6,298.4,292.4,308.1,292.4z"/>
</g>
</svg>
