<?xml version="1.0" encoding="utf-8"?>
<!-- Generator: Adobe Illustrator 23.0.5, SVG Export Plug-In . SVG Version: 6.00 Build 0)  -->
<svg version="1.1" id="Layer_1" xmlns="http://www.w3.org/2000/svg" xmlns:xlink="http://www.w3.org/1999/xlink" x="0px" y="0px"
	 viewBox="0 0 512 512" style="enable-background:new 0 0 512 512;" xml:space="preserve">
<style type="text/css">
	.st0{fill:url(#XMLID_2_);}
	.st1{fill:#9C9B9B;}
	.st2{fill:url(#XMLID_3_);}
	.st3{fill:url(#XMLID_4_);}
	.st4{fill:url(#XMLID_5_);}
	.st5{fill:url(#XMLID_6_);}
	.st6{fill:#ECECEC;}
	.st7{fill:#B1B1B1;}
	.st8{fill:#D9D9D9;}
	.st9{fill:url(#XMLID_7_);}
	.st10{fill:url(#XMLID_8_);}
	.st11{fill:url(#XMLID_9_);}
	.st12{fill:url(#XMLID_10_);}
	.st13{fill:url(#XMLID_11_);}
	.st14{fill:url(#XMLID_12_);}
</style>
<g id="XMLID_1642_">
	<g id="XMLID_1650_">
		
			<linearGradient id="XMLID_2_" gradientUnits="userSpaceOnUse" x1="-2846.677" y1="351.4799" x2="-2798.5107" y2="351.4799" gradientTransform="matrix(-1 0 0 1 -2488.6548 0)">
			<stop  offset="1.702970e-02" style="stop-color:#FDC723"/>
			<stop  offset="1" style="stop-color:#F8B133"/>
		</linearGradient>
		<polygon id="XMLID_1664_" class="st0" points="357,306.6 341.3,335.5 358,335.5 326.7,396.3 334.6,352.6 309.9,352.6 325.5,306.6 
					"/>
		<path id="XMLID_1663_" class="st1" d="M475.5,199.6c0-18.5-15-33.5-33.5-33.5c-6.3,0-12.2,1.8-17.2,4.8c0-0.8,0.1-1.6,0.1-2.4
			c0-23.5-19.1-42.6-42.6-42.6c-8.5,0-16.4,2.5-23.1,6.8c-10.6-21-32.4-35.4-57.5-35.4c-35.6,0-64.4,28.8-64.4,64.4
			c0,2.8,0.2,5.5,0.5,8.2c-11.2,2.9-20.6,10.3-26.2,20.1c-23.3,0.2-42.2,19.2-42.2,42.6c0,23.5,19.1,42.6,42.6,42.6
			c2.4,0,4.8-0.2,7.1-0.6c6.7,20.7,26.1,35.7,49,35.7c10.7,0,20.7-3.3,29-8.9c8.6,16.5,25.8,27.8,45.7,27.8c18.3,0,34.3-9.6,43.5-24
			c6.7,3.3,14.3,5.1,22.3,5.1c28.4,0,51.5-23,51.5-51.5c0-10-2.9-19.3-7.8-27.2C465.7,227.3,475.5,214.6,475.5,199.6z"/>
		<linearGradient id="XMLID_3_" gradientUnits="userSpaceOnUse" x1="169.4666" y1="247.5789" x2="475.5306" y2="247.5789">
			<stop  offset="0.5257" style="stop-color:#9C9B9B"/>
			<stop  offset="1" style="stop-color:#868686"/>
		</linearGradient>
		<path id="XMLID_1662_" class="st2" d="M475.5,199.6c0-18.5-15-33.5-33.5-33.5c-6.1,0-11.8,1.7-16.7,4.5
			c-20.5,48.7-68.7,82.9-124.9,82.9c-45.6,0-86-22.6-110.6-57.1c-12.2,7.5-20.3,20.9-20.3,36.3c0,23.5,19.1,42.6,42.6,42.6
			c2.4,0,4.8-0.2,7.1-0.6c6.7,20.7,26.1,35.7,49,35.7c10.7,0,20.7-3.3,29-8.9c8.6,16.5,25.8,27.8,45.7,27.8c18.3,0,34.3-9.6,43.5-24
			c6.7,3.3,14.3,5.1,22.3,5.1c28.4,0,51.5-23,51.5-51.5c0-10-2.9-19.3-7.8-27.2C465.7,227.3,475.5,214.6,475.5,199.6z"/>
		
			<linearGradient id="XMLID_4_" gradientUnits="userSpaceOnUse" x1="-2735.7363" y1="369.757" x2="-2687.5701" y2="369.757" gradientTransform="matrix(-1 0 0 1 -2488.6548 0)">
			<stop  offset="1.702970e-02" style="stop-color:#FDC723"/>
			<stop  offset="1" style="stop-color:#F8B133"/>
		</linearGradient>
		<polygon id="XMLID_1661_" class="st3" points="246,324.9 230.4,353.8 247.1,353.8 215.8,414.6 223.6,370.9 198.9,370.9 
			214.6,324.9 		"/>
		<linearGradient id="XMLID_5_" gradientUnits="userSpaceOnUse" x1="169.4666" y1="247.4789" x2="353.0211" y2="247.4789">
			<stop  offset="0" style="stop-color:#FFFFFF"/>
			<stop  offset="1" style="stop-color:#D9D9D9"/>
		</linearGradient>
		<path id="XMLID_1660_" class="st4" d="M304,226.7c-2.8-30.5-28.5-54.5-59.8-54.5c-6.2,0-12.3,1-18.2,2.9
			c-5.9,3.7-10.9,8.9-14.4,15c-23.3,0.2-42.2,19.2-42.2,42.6c0,23.5,19.1,42.6,42.6,42.6c2.4,0,4.8-0.2,7.1-0.6
			c6.7,20.7,26.1,35.7,49,35.7c10.7,0,20.7-3.3,29-8.9c4.7,9.1,12,16.6,21,21.5c20.2-6,35-24.8,35-47C353,248.8,331,226.8,304,226.7
			z"/>
		<radialGradient id="XMLID_6_" cx="120.775" cy="222.0096" r="194.5642" gradientUnits="userSpaceOnUse">
			<stop  offset="0" style="stop-color:#ECECEC"/>
			<stop  offset="1" style="stop-color:#9C9B9B"/>
		</radialGradient>
		<path id="XMLID_1659_" class="st5" d="M88.7,209c0.2,0,0.3,0,0.4,0c-0.3-2.5-0.4-5-0.4-7.5c0-35.9,29.1-65,65-65
			c31.1,0,57.1,21.9,63.5,51.1c7.9-4.8,17.1-7.6,27-7.6c28.8,0,52.2,23.4,52.2,52.2c0,1-0.1,2-0.2,3.1c2.5-0.5,5.1-0.7,7.7-0.7
			c22.8,0,41.2,18.4,41.2,41.2c0,22.8-18.4,41.2-41.2,41.2c-5.8,0-11.3-1.2-16.3-3.4c-9.4,8.9-22,14.4-35.9,14.4
			c-1.7,0-3.4-0.1-5.1-0.3c-9.6,11.2-23.8,18.2-39.6,18.2c-12.9,0-24.7-4.7-33.8-12.4c-8.9,7-20.1,11.3-32.4,11.3
			c-21.5,0-39.9-13-48-31.6c-1.4,0.1-2.8,0.2-4.3,0.2c-28.8,0-52.2-23.4-52.2-52.2C36.5,232.4,59.9,209,88.7,209z"/>
		<path id="XMLID_1658_" class="st6" d="M213.9,177c-9.7-23.7-33-40.5-60.2-40.5c-35.9,0-65,29.1-65,65c0,2.5,0.2,5.1,0.4,7.5
			c-0.2,0-0.3,0-0.4,0c-28.8,0-52.2,23.4-52.2,52.2s23.4,52.2,52.2,52.2c0.1,0,0.2,0,0.2,0C155.4,300.6,206.8,245.4,213.9,177z"/>
		<path id="XMLID_1657_" class="st7" d="M267.6,114.6c8.1-2.5,15.4,5.9,10.3,13.4c-1.4,2.1-3.8,3.7-6.2,5c-3.2,1.8-6.7,3.3-9.9,3.5
			c-9.5,0.6-8.9-7.4-3.9-14.5C260.3,118.7,263.8,115.8,267.6,114.6z"/>
		<path id="XMLID_1656_" class="st8" d="M127.2,151c11.8-2.7,21.2,10.1,13.4,20.3c-2.2,2.9-5.8,4.8-9.2,6.4
			c-4.7,2.2-9.7,3.9-14.4,3.8c-13.5-0.2-12-11.6-4.2-21.1C116.4,156,121.7,152.2,127.2,151z"/>
		<path id="XMLID_1655_" class="st7" d="M400.1,137.7c9.5,7.4,5.7,22.8-7.1,23.3c-3.6,0.1-7.4-1.4-10.8-3c-4.7-2.3-9.2-5-12.1-8.6
			c-8.5-10.6,1.4-16.6,13.6-16.7C389.4,132.6,395.7,134.2,400.1,137.7z"/>
		<g id="XMLID_1651_">
			
				<radialGradient id="XMLID_7_" cx="-1718.6383" cy="-1483.7334" r="21.8706" gradientTransform="matrix(-0.9999 -1.010000e-02 1.010000e-02 -0.9999 -1408.9965 -1317.3459)" gradientUnits="userSpaceOnUse">
				<stop  offset="0" style="stop-color:#3C3C3B"/>
				<stop  offset="1" style="stop-color:#1D1D1B"/>
			</radialGradient>
			<polygon id="XMLID_1654_" class="st9" points="279.7,181.5 308.4,181.8 308.4,185.9 279.7,185.6 			"/>
			
				<radialGradient id="XMLID_8_" cx="-1784.2557" cy="-1483.0706" r="21.8706" gradientTransform="matrix(-0.9999 -1.010000e-02 1.010000e-02 -0.9999 -1408.9965 -1317.3459)" gradientUnits="userSpaceOnUse">
				<stop  offset="0" style="stop-color:#3C3C3B"/>
				<stop  offset="1" style="stop-color:#1D1D1B"/>
			</radialGradient>
			<polygon id="XMLID_1653_" class="st10" points="345.3,181.5 374,181.8 374,185.9 345.3,185.6 			"/>
			
				<radialGradient id="XMLID_9_" cx="327.2339" cy="176.5275" r="30.8138" gradientTransform="matrix(1 0 0 1 -1.0643 47.4231)" gradientUnits="userSpaceOnUse">
				<stop  offset="0.2927" style="stop-color:#3C3C3B"/>
				<stop  offset="1" style="stop-color:#1D1D1B"/>
			</radialGradient>
			<path id="XMLID_1652_" class="st11" d="M326.7,232.7c10.3,0,18.6-8.3,18.6-18.6h-37.1C308.2,224.3,316.5,232.7,326.7,232.7z"/>
		</g>
	</g>
	<g id="XMLID_1643_">
		<g id="XMLID_1648_">
			
				<radialGradient id="XMLID_10_" cx="96.453" cy="239.6139" r="30.5076" gradientTransform="matrix(0.845 0 0 1 40.0426 0)" gradientUnits="userSpaceOnUse">
				<stop  offset="0" style="stop-color:#3C3C3B"/>
				<stop  offset="1" style="stop-color:#1D1D1B"/>
			</radialGradient>
			<rect id="XMLID_1649_" x="105.1" y="236.6" class="st12" width="33.8" height="5.7"/>
		</g>
		<g id="XMLID_1646_">
			
				<radialGradient id="XMLID_11_" cx="136.5104" cy="285.2959" r="30.5075" gradientTransform="matrix(0.845 0 0 1 40.0426 0)" gradientUnits="userSpaceOnUse">
				<stop  offset="0" style="stop-color:#3C3C3B"/>
				<stop  offset="1" style="stop-color:#1D1D1B"/>
			</radialGradient>
			<rect id="XMLID_1647_" x="139" y="282.3" class="st13" width="33.8" height="5.7"/>
		</g>
		<g id="XMLID_1644_">
			
				<radialGradient id="XMLID_12_" cx="185.1046" cy="239.6139" r="30.5076" gradientTransform="matrix(0.845 0 0 1 40.0426 0)" gradientUnits="userSpaceOnUse">
				<stop  offset="0" style="stop-color:#3C3C3B"/>
				<stop  offset="1" style="stop-color:#1D1D1B"/>
			</radialGradient>
			<rect id="XMLID_1645_" x="180" y="236.6" class="st14" width="33.8" height="5.7"/>
		</g>
	</g>
</g>
</svg>
