<?xml version="1.0" encoding="utf-8"?>
<!-- Generator: Adobe Illustrator 23.0.5, SVG Export Plug-In . SVG Version: 6.00 Build 0)  -->
<svg version="1.1" id="Layer_1" xmlns="http://www.w3.org/2000/svg" xmlns:xlink="http://www.w3.org/1999/xlink" x="0px" y="0px"
	 viewBox="0 0 512 512" style="enable-background:new 0 0 512 512;" xml:space="preserve">
<style type="text/css">
	.st0{fill:#F29100;}
	.st1{fill:url(#XMLID_2_);}
	.st2{fill:url(#XMLID_3_);}
	.st3{fill:url(#XMLID_4_);}
	.st4{fill:url(#XMLID_5_);}
	.st5{fill:url(#XMLID_6_);}
	.st6{fill:url(#XMLID_7_);}
	.st7{opacity:0.51;fill:url(#XMLID_8_);}
	.st8{fill:#ECECEC;}
	.st9{fill:#F5F5F5;}
	.st10{opacity:0.46;fill:#F5F5F5;}
	.st11{opacity:0.68;fill:#FFFFFF;}
	.st12{fill:url(#XMLID_9_);}
	.st13{fill:url(#XMLID_10_);}
	.st14{fill:url(#XMLID_11_);}
</style>
<g id="XMLID_1375_">
	<polygon id="XMLID_1395_" class="st0" points="113.5,142.2 159.9,139.3 185.6,100.5 227.3,121.3 268.9,100.5 294.6,139.3 
		341.1,142.2 343.9,188.7 382.8,214.3 361.9,256 382.8,297.7 343.9,323.3 341.1,369.8 294.6,372.7 268.9,411.5 227.3,390.7 
		185.6,411.5 159.9,372.7 113.5,369.8 110.6,323.3 71.8,297.7 92.6,256 71.8,214.3 110.6,188.7 	"/>
	
		<linearGradient id="XMLID_2_" gradientUnits="userSpaceOnUse" x1="785.7684" y1="-1436.6273" x2="1097.8561" y2="-1436.6273" gradientTransform="matrix(0.7071 0.7071 -0.7071 0.7071 -1457 603.4015)">
		<stop  offset="1.702970e-02" style="stop-color:#FDC723"/>
		<stop  offset="0.2379" style="stop-color:#F8B133"/>
		<stop  offset="0.7876" style="stop-color:#F29100"/>
		<stop  offset="0.9796" style="stop-color:#ED7402"/>
	</linearGradient>
	<polygon id="XMLID_1394_" class="st1" points="59.1,256 91.3,219.6 81.6,171.9 127.8,156.5 143.2,110.3 190.8,120.1 227.3,87.8 
		263.7,120.1 311.4,110.3 326.8,156.5 372.9,171.9 363.2,219.6 395.5,256 363.2,292.4 372.9,340.1 326.8,355.5 311.4,401.7 
		263.7,391.9 227.3,424.2 190.8,391.9 143.2,401.7 127.8,355.5 81.6,340.1 91.3,292.4 	"/>
	<radialGradient id="XMLID_3_" cx="202.5513" cy="232.3494" r="127.3908" gradientUnits="userSpaceOnUse">
		<stop  offset="1.702970e-02" style="stop-color:#FDC723"/>
		<stop  offset="0.2379" style="stop-color:#F8B133"/>
		<stop  offset="0.7876" style="stop-color:#F29100"/>
		<stop  offset="0.9796" style="stop-color:#ED7402"/>
	</radialGradient>
	<circle id="XMLID_1393_" class="st2" cx="227.3" cy="256" r="127.4"/>
	<g id="XMLID_1386_">
		<g id="XMLID_1391_">
			
				<radialGradient id="XMLID_4_" cx="161.7503" cy="226.0139" r="40.6273" gradientTransform="matrix(0.845 0 0 1 40.0426 0)" gradientUnits="userSpaceOnUse">
				<stop  offset="0" style="stop-color:#3C3C3B"/>
				<stop  offset="1" style="stop-color:#1D1D1B"/>
			</radialGradient>
			<rect id="XMLID_1392_" x="154.9" y="222" class="st3" width="45.1" height="7.6"/>
		</g>
		<g id="XMLID_1389_">
			
				<radialGradient id="XMLID_5_" cx="215.0953" cy="286.849" r="40.6273" gradientTransform="matrix(0.845 0 0 1 40.0426 0)" gradientUnits="userSpaceOnUse">
				<stop  offset="0" style="stop-color:#3C3C3B"/>
				<stop  offset="1" style="stop-color:#1D1D1B"/>
			</radialGradient>
			<rect id="XMLID_1390_" x="199.9" y="282.8" class="st4" width="45.1" height="7.6"/>
		</g>
		<g id="XMLID_1387_">
			
				<radialGradient id="XMLID_6_" cx="279.8087" cy="226.0139" r="40.6273" gradientTransform="matrix(0.845 0 0 1 40.0426 0)" gradientUnits="userSpaceOnUse">
				<stop  offset="0" style="stop-color:#3C3C3B"/>
				<stop  offset="1" style="stop-color:#1D1D1B"/>
			</radialGradient>
			<rect id="XMLID_1388_" x="254.6" y="222" class="st5" width="45.1" height="7.6"/>
		</g>
	</g>
	<linearGradient id="XMLID_7_" gradientUnits="userSpaceOnUse" x1="157.2211" y1="312.4272" x2="350.1674" y2="312.4272">
		<stop  offset="0" style="stop-color:#FFFFFF"/>
		<stop  offset="1" style="stop-color:#D9D9D9"/>
	</linearGradient>
	<path id="XMLID_1385_" class="st6" d="M157.2,362.4c20.1,13.3,44.2,21,70.1,21c58.7,0,108.1-39.7,122.9-93.7c-4.4-1.9-9.2-3-14.3-3
		c-0.5,0-1,0.1-1.6,0.1c-6.1-26-29.4-45.3-57.2-45.3c-32.5,0-58.8,26.3-58.8,58.8c0,6.2,1,12.1,2.7,17.7
		c-13.1,5.4-22.3,18.3-22.3,33.4c0,2.9,0.4,5.7,1,8.4h-30.6C164.8,359.8,160.8,360.7,157.2,362.4z"/>
	<linearGradient id="XMLID_8_" gradientUnits="userSpaceOnUse" x1="154.8589" y1="336.8873" x2="370.8418" y2="336.8873">
		<stop  offset="0" style="stop-color:#D9D9D9"/>
		<stop  offset="1" style="stop-color:#FFFFFF"/>
	</linearGradient>
	<path id="XMLID_1384_" class="st7" d="M430.2,367.8c0.6-2.7,1-5.4,1-8.3c0-20-16.2-36.2-36.2-36.2c-3.3,0-6.6,0.5-9.6,1.3
		c-3-16.9-17.8-29.8-35.6-29.8c-0.5,0-1,0.1-1.6,0.1c-6.1-26-29.4-45.3-57.2-45.3c-32.5,0-58.8,26.3-58.8,58.8
		c0,6.2,1,12.1,2.7,17.7c-13.1,5.4-22.3,18.3-22.3,33.4c0,2.9,0.4,5.7,1,8.4H183c-15.5,0-28.1,12.6-28.1,28.1l0,0
		c0,15.5,12.6,28.1,28.1,28.1h37h104.5h99.9c15.7,0,28.5-12.8,28.5-28.5v0C452.9,381.9,443.2,370.5,430.2,367.8z"/>
	<path id="XMLID_1383_" class="st8" d="M430.2,367.8c0.6-2.7,1-5.4,1-8.3c0-20-16.2-36.2-36.2-36.2c-3.3,0-6.6,0.5-9.6,1.3
		c-3-16.8-17.5-29.6-35.1-29.8c-1,56.7-34.1,105.6-81.8,129.3h56h99.9c15.7,0,28.5-12.8,28.5-28.5l0,0
		C452.9,381.9,443.2,370.5,430.2,367.8z"/>
	<path id="XMLID_1382_" class="st9" d="M424.7,348.8c1.9,7.7-6.2,13.9-12.9,8.9c-1.9-1.4-3.2-3.7-4.3-5.9c-1.5-3.1-2.7-6.3-2.8-9.4
		c-0.1-8.8,7.3-7.9,13.6-2.9C421.2,341.8,423.8,345.2,424.7,348.8z"/>
	<path id="XMLID_1381_" class="st10" d="M175,373.4c7.6-2.3,14.2,5.5,9.5,12.4c-1.3,2-3.6,3.4-5.7,4.6c-3,1.6-6.2,3-9.2,3.2
		c-8.8,0.6-8.2-6.9-3.6-13.4C168.2,377.3,171.4,374.5,175,373.4z"/>
	<path id="XMLID_1380_" class="st11" d="M272.7,258.3c10.9-2.5,19.7,9.4,12.4,18.8c-2.1,2.7-5.3,4.5-8.5,5.9c-4.4,2-9,3.6-13.3,3.6
		c-12.6-0.2-11.1-10.8-3.9-19.5C262.8,263,267.7,259.4,272.7,258.3z"/>
	<g id="XMLID_1376_">
		<radialGradient id="XMLID_9_" cx="281.5123" cy="340.3119" r="5.4234" gradientUnits="userSpaceOnUse">
			<stop  offset="0" style="stop-color:#3C3C3B"/>
			<stop  offset="1" style="stop-color:#1D1D1B"/>
		</radialGradient>
		<path id="XMLID_1379_" class="st12" d="M284.9,342.3c0,3-2.4,5.4-5.4,5.4c-3,0-5.4-2.4-5.4-5.4c0-3,2.4-5.4,5.4-5.4
			C282.5,336.9,284.9,339.3,284.9,342.3z"/>
		<radialGradient id="XMLID_10_" cx="350.8148" cy="339.8836" r="5.4234" gradientUnits="userSpaceOnUse">
			<stop  offset="0" style="stop-color:#3C3C3B"/>
			<stop  offset="1" style="stop-color:#1D1D1B"/>
		</radialGradient>
		<path id="XMLID_1378_" class="st13" d="M354.7,342.3c0,3-2.4,5.4-5.4,5.4c-3,0-5.4-2.4-5.4-5.4c0-3,2.4-5.4,5.4-5.4
			C352.2,336.9,354.7,339.3,354.7,342.3z"/>
		<radialGradient id="XMLID_11_" cx="315.782" cy="373.9196" r="11.4373" gradientUnits="userSpaceOnUse">
			<stop  offset="0" style="stop-color:#3C3C3B"/>
			<stop  offset="1" style="stop-color:#1D1D1B"/>
		</radialGradient>
		<path id="XMLID_1377_" class="st14" d="M323.9,379c0,6.3-5.1,11.4-11.4,11.4c-6.3,0-11.4-5.1-11.4-11.4c0-6.3,5.1-11.4,11.4-11.4
			C318.8,367.6,323.9,372.7,323.9,379z"/>
	</g>
</g>
</svg>
