<?xml version="1.0" encoding="utf-8"?>
<!-- Generator: Adobe Illustrator 23.0.5, SVG Export Plug-In . SVG Version: 6.00 Build 0)  -->
<svg version="1.1" id="Layer_1" xmlns="http://www.w3.org/2000/svg" xmlns:xlink="http://www.w3.org/1999/xlink" x="0px" y="0px"
	 viewBox="0 0 512 512" style="enable-background:new 0 0 512 512;" xml:space="preserve">
<style type="text/css">
	.st0{fill:#F29100;}
	.st1{fill:url(#XMLID_2_);}
	.st2{fill:url(#XMLID_3_);}
	.st3{fill:url(#XMLID_4_);}
	.st4{fill:url(#XMLID_5_);}
	.st5{fill:url(#XMLID_6_);}
	.st6{fill:url(#XMLID_7_);}
	.st7{fill:url(#XMLID_8_);}
	.st8{fill:#ECECEC;}
	.st9{fill:#F5F5F5;}
	.st10{fill:#FFFFFF;}
	.st11{fill:url(#XMLID_9_);}
	.st12{fill:url(#XMLID_10_);}
	.st13{fill:url(#XMLID_11_);}
	.st14{fill:url(#XMLID_12_);}
	.st15{fill:url(#XMLID_13_);}
	.st16{fill:url(#XMLID_14_);}
</style>
<g id="XMLID_1783_">
	<polygon id="XMLID_1812_" class="st0" points="111.1,108.9 158.3,106.1 184.4,66.6 226.8,87.7 269.2,66.6 295.3,106.1 342.5,108.9 
		345.4,156.2 384.9,182.3 363.7,224.7 384.9,267 345.4,293.1 342.5,340.4 295.3,343.3 269.2,382.8 226.8,361.6 184.4,382.8 
		158.3,343.3 111.1,340.4 108.2,293.1 68.7,267 89.9,224.7 68.7,182.3 108.2,156.2 	"/>
	
		<linearGradient id="XMLID_2_" gradientUnits="userSpaceOnUse" x1="760.6148" y1="-1458.4512" x2="1077.8933" y2="-1458.4512" gradientTransform="matrix(0.7071 0.7071 -0.7071 0.7071 -1457 603.4015)">
		<stop  offset="1.702970e-02" style="stop-color:#FDC723"/>
		<stop  offset="0.2379" style="stop-color:#F8B133"/>
		<stop  offset="0.7876" style="stop-color:#F29100"/>
		<stop  offset="0.9796" style="stop-color:#ED7402"/>
	</linearGradient>
	<polygon id="XMLID_1811_" class="st1" points="55.8,224.7 88.6,187.6 78.7,139.1 125.7,123.5 141.3,76.6 189.8,86.5 226.8,53.7 
		263.8,86.5 312.3,76.6 327.9,123.5 374.9,139.1 365,187.6 397.8,224.7 365,261.7 374.9,310.2 327.9,325.8 312.3,372.7 263.8,362.9 
		226.8,395.6 189.8,362.9 141.3,372.7 125.7,325.8 78.7,310.2 88.6,261.7 	"/>
	<radialGradient id="XMLID_3_" cx="201.6621" cy="200.6148" r="129.5097" gradientUnits="userSpaceOnUse">
		<stop  offset="1.702970e-02" style="stop-color:#FDC723"/>
		<stop  offset="0.2379" style="stop-color:#F8B133"/>
		<stop  offset="0.7876" style="stop-color:#F29100"/>
		<stop  offset="0.9796" style="stop-color:#ED7402"/>
	</radialGradient>
	<circle id="XMLID_1810_" class="st2" cx="226.8" cy="224.7" r="129.5"/>
	<g id="XMLID_1803_">
		<g id="XMLID_1808_">
			
				<radialGradient id="XMLID_4_" cx="160.1895" cy="194.1735" r="41.3031" gradientTransform="matrix(0.845 0 0 1 40.0426 0)" gradientUnits="userSpaceOnUse">
				<stop  offset="0" style="stop-color:#3C3C3B"/>
				<stop  offset="1" style="stop-color:#1D1D1B"/>
			</radialGradient>
			<rect id="XMLID_1809_" x="153.2" y="190.1" class="st3" width="45.8" height="7.7"/>
		</g>
		<g id="XMLID_1806_">
			
				<radialGradient id="XMLID_5_" cx="214.4218" cy="256.0205" r="41.3031" gradientTransform="matrix(0.845 0 0 1 40.0426 0)" gradientUnits="userSpaceOnUse">
				<stop  offset="0" style="stop-color:#3C3C3B"/>
				<stop  offset="1" style="stop-color:#1D1D1B"/>
			</radialGradient>
			<rect id="XMLID_1807_" x="199" y="251.9" class="st4" width="45.8" height="7.7"/>
		</g>
		<g id="XMLID_1804_">
			
				<radialGradient id="XMLID_6_" cx="280.2117" cy="194.1735" r="41.3031" gradientTransform="matrix(0.845 0 0 1 40.0426 0)" gradientUnits="userSpaceOnUse">
				<stop  offset="0" style="stop-color:#3C3C3B"/>
				<stop  offset="1" style="stop-color:#1D1D1B"/>
			</radialGradient>
			<rect id="XMLID_1805_" x="254.6" y="190.1" class="st5" width="45.8" height="7.7"/>
		</g>
	</g>
	<linearGradient id="XMLID_7_" gradientUnits="userSpaceOnUse" x1="155.578" y1="282.0245" x2="351.7335" y2="282.0245">
		<stop  offset="0" style="stop-color:#FFFFFF"/>
		<stop  offset="1" style="stop-color:#D9D9D9"/>
	</linearGradient>
	<path id="XMLID_1802_" class="st6" d="M155.6,332.8c20.4,13.5,44.9,21.3,71.2,21.3c59.7,0,109.9-40.4,124.9-95.3
		c-4.5-1.9-9.4-3-14.6-3c-0.5,0-1.1,0.1-1.6,0.1c-6.2-26.4-29.9-46.1-58.2-46.1c-33,0-59.8,26.8-59.8,59.8c0,6.3,1,12.3,2.8,18
		c-13.3,5.5-22.7,18.7-22.7,34c0,3,0.4,5.8,1,8.6h-31.1C163.3,330.2,159.2,331.1,155.6,332.8z"/>
	<linearGradient id="XMLID_8_" gradientUnits="userSpaceOnUse" x1="153.1765" y1="306.8912" x2="372.752" y2="306.8912">
		<stop  offset="0" style="stop-color:#D9D9D9"/>
		<stop  offset="1" style="stop-color:#FFFFFF"/>
	</linearGradient>
	<path id="XMLID_1801_" class="st7" d="M433.1,338.3c0.6-2.7,1-5.5,1-8.4c0-20.3-16.5-36.8-36.8-36.8c-3.4,0-6.7,0.5-9.8,1.4
		c-3.1-17.2-18.1-30.3-36.2-30.3c-0.5,0-1.1,0.1-1.6,0.1c-6.2-26.4-29.9-46.1-58.2-46.1c-33,0-59.8,26.8-59.8,59.8
		c0,6.3,1,12.3,2.8,18c-13.3,5.5-22.7,18.7-22.7,34c0,3,0.4,5.8,1,8.6h-31.1c-15.8,0-28.6,12.8-28.6,28.6l0,0
		c0,15.8,12.8,28.6,28.6,28.6h37.6h106.3h101.6c16,0,29-13,29-29l0,0C456.2,352.7,446.3,341,433.1,338.3z"/>
	<path id="XMLID_1800_" class="st8" d="M433.1,338.3c0.6-2.7,1-5.5,1-8.4c0-20.3-16.5-36.8-36.8-36.8c-3.4,0-6.7,0.5-9.8,1.4
		c-3-17.1-17.8-30.1-35.7-30.3c-1.1,57.6-34.6,107.3-83.1,131.5h57h101.6c16,0,29-13,29-29l0,0C456.2,352.7,446.3,341,433.1,338.3z"
		/>
	<path id="XMLID_1799_" class="st9" d="M427.5,319c2,7.8-6.3,14.2-13.1,9c-1.9-1.5-3.3-3.8-4.4-6c-1.5-3.1-2.8-6.4-2.8-9.5
		c-0.1-9,7.4-8,13.8-3C424,311.9,426.6,315.4,427.5,319z"/>
	<path id="XMLID_1798_" class="st9" d="M173.6,344.1c7.7-2.4,14.5,5.5,9.7,12.6c-1.4,2-3.6,3.5-5.8,4.7c-3,1.7-6.3,3.1-9.4,3.3
		c-9,0.6-8.4-7-3.6-13.6C166.7,347.9,170,345.2,173.6,344.1z"/>
	<path id="XMLID_1797_" class="st10" d="M273,227c11.1-2.5,20,9.6,12.6,19.1c-2.1,2.7-5.4,4.5-8.6,6c-4.4,2-9.2,3.7-13.5,3.6
		c-12.8-0.2-11.3-11-4-19.9C262.9,231.7,267.8,228.2,273,227z"/>
	
		<radialGradient id="XMLID_9_" cx="441.7027" cy="-2940.3477" r="29.0415" gradientTransform="matrix(-1 0 0 -1 760.3934 -2600.6001)" gradientUnits="userSpaceOnUse">
		<stop  offset="0.2927" style="stop-color:#3C3C3B"/>
		<stop  offset="1" style="stop-color:#1D1D1B"/>
	</radialGradient>
	<path id="XMLID_1796_" class="st11" d="M318.2,331.5c-9.7,0-17.5,7.8-17.5,17.5h35C335.7,339.4,327.8,331.5,318.2,331.5z"/>
	<g id="XMLID_1793_">
		<radialGradient id="XMLID_10_" cx="281.9364" cy="310.373" r="5.5136" gradientUnits="userSpaceOnUse">
			<stop  offset="0" style="stop-color:#3C3C3B"/>
			<stop  offset="1" style="stop-color:#1D1D1B"/>
		</radialGradient>
		<path id="XMLID_1795_" class="st12" d="M285.4,312.4c0,3-2.5,5.5-5.5,5.5c-3,0-5.5-2.5-5.5-5.5c0-3,2.5-5.5,5.5-5.5
			C282.9,306.9,285.4,309.4,285.4,312.4z"/>
		<radialGradient id="XMLID_11_" cx="352.3917" cy="309.9376" r="5.5136" gradientUnits="userSpaceOnUse">
			<stop  offset="0" style="stop-color:#3C3C3B"/>
			<stop  offset="1" style="stop-color:#1D1D1B"/>
		</radialGradient>
		<path id="XMLID_1794_" class="st13" d="M356.3,312.4c0,3-2.5,5.5-5.5,5.5c-3,0-5.5-2.5-5.5-5.5c0-3,2.5-5.5,5.5-5.5
			C353.8,306.9,356.3,309.4,356.3,312.4z"/>
	</g>
	<g id="XMLID_1790_">
		
			<radialGradient id="XMLID_12_" cx="258.5453" cy="421.1346" r="12.5867" gradientTransform="matrix(1 0 0 1.376 0 -158.3298)" gradientUnits="userSpaceOnUse">
			<stop  offset="4.281480e-02" style="stop-color:#B9E2F9"/>
			<stop  offset="0.6495" style="stop-color:#89D1F5"/>
			<stop  offset="1" style="stop-color:#34A7DF"/>
		</radialGradient>
		<path id="XMLID_1792_" class="st14" d="M261.5,405.2c-0.5-0.8-1.6-0.8-2.1,0c-3.8,6.7-16.2,30.2,1,30.2
			C277.7,435.4,265.3,411.9,261.5,405.2z"/>
		<path id="XMLID_1791_" class="st9" d="M253.2,429.2c0-2.1,2.5-3.1,3.9-1.4c0.4,0.5,0.6,1.2,0.7,1.8c0.2,0.9,0.3,1.8,0.1,2.6
			c-0.6,2.3-2.4,1.5-3.7-0.2C253.6,431.2,253.1,430.2,253.2,429.2z"/>
	</g>
	<g id="XMLID_1787_">
		
			<radialGradient id="XMLID_13_" cx="373.9261" cy="421.1346" r="12.5867" gradientTransform="matrix(1 0 0 1.376 0 -158.3298)" gradientUnits="userSpaceOnUse">
			<stop  offset="4.281480e-02" style="stop-color:#B9E2F9"/>
			<stop  offset="0.6495" style="stop-color:#89D1F5"/>
			<stop  offset="1" style="stop-color:#34A7DF"/>
		</radialGradient>
		<path id="XMLID_1789_" class="st15" d="M376.9,405.2c-0.5-0.8-1.6-0.8-2.1,0c-3.8,6.7-16.2,30.2,1,30.2
			C393.1,435.4,380.7,411.9,376.9,405.2z"/>
		<path id="XMLID_1788_" class="st9" d="M368.5,429.2c0-2.1,2.5-3.1,3.9-1.4c0.4,0.5,0.6,1.2,0.7,1.8c0.2,0.9,0.3,1.8,0.1,2.6
			c-0.6,2.3-2.4,1.5-3.7-0.2C368.9,431.2,368.5,430.2,368.5,429.2z"/>
	</g>
	<g id="XMLID_1784_">
		
			<radialGradient id="XMLID_14_" cx="305.9649" cy="444.0269" r="12.5866" gradientTransform="matrix(1 0 0 1.376 0 -166.9363)" gradientUnits="userSpaceOnUse">
			<stop  offset="4.281480e-02" style="stop-color:#B9E2F9"/>
			<stop  offset="0.6495" style="stop-color:#89D1F5"/>
			<stop  offset="1" style="stop-color:#34A7DF"/>
		</radialGradient>
		<path id="XMLID_1786_" class="st16" d="M308.9,428.1c-0.5-0.8-1.6-0.8-2.1,0c-3.8,6.7-16.2,30.2,1,30.2
			C325.1,458.3,312.8,434.7,308.9,428.1z"/>
		<path id="XMLID_1785_" class="st9" d="M300.6,452.1c0-2.1,2.5-3.1,3.9-1.4c0.4,0.5,0.6,1.2,0.7,1.8c0.2,0.9,0.3,1.8,0.1,2.6
			c-0.6,2.3-2.4,1.5-3.7-0.2C301,454.1,300.6,453.1,300.6,452.1z"/>
	</g>
</g>
</svg>
