<?xml version="1.0" encoding="utf-8"?>
<!-- Generator: Adobe Illustrator 23.0.5, SVG Export Plug-In . SVG Version: 6.00 Build 0)  -->
<svg version="1.1" id="Layer_1" xmlns="http://www.w3.org/2000/svg" xmlns:xlink="http://www.w3.org/1999/xlink" x="0px" y="0px"
	 viewBox="0 0 512 512" style="enable-background:new 0 0 512 512;" xml:space="preserve">
<style type="text/css">
	.st0{fill:#F29100;}
	.st1{fill:url(#XMLID_2_);}
	.st2{fill:url(#XMLID_3_);}
	.st3{fill:url(#XMLID_4_);}
	.st4{fill:url(#XMLID_5_);}
	.st5{fill:url(#XMLID_6_);}
	.st6{fill:url(#XMLID_7_);}
	.st7{fill:#9C9B9B;}
	.st8{fill:url(#XMLID_8_);}
	.st9{fill:url(#XMLID_9_);}
	.st10{fill:url(#XMLID_10_);}
	.st11{fill:url(#XMLID_11_);}
	.st12{fill:#ECECEC;}
	.st13{fill:#B1B1B1;}
	.st14{fill:#D9D9D9;}
	.st15{fill:url(#XMLID_12_);}
	.st16{fill:url(#XMLID_13_);}
	.st17{fill:url(#XMLID_14_);}
	.st18{fill:url(#XMLID_15_);}
	.st19{fill:url(#XMLID_16_);}
	.st20{fill:url(#XMLID_17_);}
</style>
<g>
	<g id="XMLID_1832_">
		<g id="XMLID_1837_">
			<polygon id="XMLID_1840_" class="st0" points="103.3,103.1 142.7,100.7 164.5,67.7 199.8,85.4 235.1,67.7 256.9,100.7 
				296.3,103.1 298.7,142.5 331.7,164.2 314,199.6 331.7,234.9 298.7,256.7 296.3,296.1 256.9,298.5 235.1,331.4 199.8,313.7 
				164.5,331.4 142.7,298.5 103.3,296.1 100.9,256.7 68,234.9 85.7,199.6 68,164.2 100.9,142.5 			"/>
			
				<linearGradient id="XMLID_2_" gradientUnits="userSpaceOnUse" x1="750.7357" y1="-1457.1204" x2="1015.3097" y2="-1457.1204" gradientTransform="matrix(0.7071 0.7071 -0.7071 0.7071 -1457 603.4015)">
				<stop  offset="1.702970e-02" style="stop-color:#FDC723"/>
				<stop  offset="0.2379" style="stop-color:#F8B133"/>
				<stop  offset="0.7876" style="stop-color:#F29100"/>
				<stop  offset="0.9796" style="stop-color:#ED7402"/>
			</linearGradient>
			<polygon id="XMLID_1839_" class="st1" points="57.2,199.6 84.6,168.7 76.3,128.3 115.5,115.2 128.5,76.1 168.9,84.3 199.8,57 
				230.7,84.3 271.1,76.1 284.2,115.2 323.3,128.3 315.1,168.7 342.4,199.6 315.1,230.4 323.3,270.9 284.2,283.9 271.1,323 
				230.7,314.8 199.8,342.1 168.9,314.8 128.5,323 115.5,283.9 76.3,270.9 84.6,230.4 			"/>
			<radialGradient id="XMLID_3_" cx="181.8569" cy="182.5101" r="123.5748" gradientUnits="userSpaceOnUse">
				<stop  offset="3.334740e-02" style="stop-color:#FFE089"/>
				<stop  offset="0.3449" style="stop-color:#FDC723"/>
				<stop  offset="0.5538" style="stop-color:#F8B133"/>
				<stop  offset="0.7876" style="stop-color:#F29100"/>
				<stop  offset="0.9796" style="stop-color:#ED7402"/>
			</radialGradient>
			<circle id="XMLID_1838_" class="st2" cx="199.8" cy="199.6" r="108"/>
		</g>
		<g id="XMLID_1833_">
			<radialGradient id="XMLID_4_" cx="149.7372" cy="175.9276" r="8.2645" gradientUnits="userSpaceOnUse">
				<stop  offset="0" style="stop-color:#3C3C3B"/>
				<stop  offset="1" style="stop-color:#1D1D1B"/>
			</radialGradient>
			<path id="XMLID_1836_" class="st3" d="M155,179c0,4.6-3.7,8.3-8.3,8.3c-4.6,0-8.3-3.7-8.3-8.3c0-4.6,3.7-8.3,8.3-8.3
				C151.3,170.7,155,174.4,155,179z"/>
			<radialGradient id="XMLID_5_" cx="255.3409" cy="175.2749" r="8.2645" gradientUnits="userSpaceOnUse">
				<stop  offset="0" style="stop-color:#3C3C3B"/>
				<stop  offset="1" style="stop-color:#1D1D1B"/>
			</radialGradient>
			<path id="XMLID_1835_" class="st4" d="M261.2,179c0,4.6-3.7,8.3-8.3,8.3c-4.6,0-8.3-3.7-8.3-8.3c0-4.6,3.7-8.3,8.3-8.3
				C257.5,170.7,261.2,174.4,261.2,179z"/>
			<radialGradient id="XMLID_6_" cx="199.3821" cy="221.5709" r="24.2172" gradientUnits="userSpaceOnUse">
				<stop  offset="0.2927" style="stop-color:#3C3C3B"/>
				<stop  offset="1" style="stop-color:#1D1D1B"/>
			</radialGradient>
			<path id="XMLID_1834_" class="st5" d="M199.8,228.4c8.1,0,14.6-6.5,14.6-14.6h-29.2C185.2,221.9,191.8,228.4,199.8,228.4z"/>
		</g>
	</g>
	<g id="XMLID_1642_">
		<g id="XMLID_1650_">
			
				<linearGradient id="XMLID_7_" gradientUnits="userSpaceOnUse" x1="-2851.0569" y1="405.3866" x2="-2813.2019" y2="405.3866" gradientTransform="matrix(-1 0 0 1 -2488.6548 0)">
				<stop  offset="1.702970e-02" style="stop-color:#FDC723"/>
				<stop  offset="1" style="stop-color:#F8B133"/>
			</linearGradient>
			<polygon id="XMLID_1664_" class="st6" points="361.6,370.1 349.3,392.8 362.4,392.8 337.8,440.6 344,406.3 324.5,406.3 
				336.9,370.1 			"/>
			<path id="XMLID_1663_" class="st7" d="M454.8,286c0-14.6-11.8-26.4-26.4-26.4c-5,0-9.6,1.4-13.5,3.8c0-0.6,0.1-1.2,0.1-1.9
				c0-18.5-15-33.5-33.5-33.5c-6.7,0-12.9,2-18.1,5.4c-8.3-16.5-25.4-27.8-45.2-27.8c-27.9,0-50.6,22.7-50.6,50.6
				c0,2.2,0.2,4.3,0.4,6.4c-8.8,2.3-16.2,8.1-20.6,15.8c-18.3,0.2-33.2,15.1-33.2,33.4c0,18.5,15,33.5,33.5,33.5
				c1.9,0,3.7-0.2,5.6-0.5c5.2,16.3,20.5,28,38.5,28c8.4,0,16.3-2.6,22.8-7c6.7,13,20.3,21.8,35.9,21.8c14.4,0,27-7.5,34.2-18.9
				c5.3,2.6,11.2,4,17.5,4c22.3,0,40.4-18.1,40.4-40.4c0-7.8-2.3-15.1-6.1-21.3C447,307.8,454.8,297.8,454.8,286z"/>
			<linearGradient id="XMLID_8_" gradientUnits="userSpaceOnUse" x1="214.212" y1="323.7283" x2="454.7548" y2="323.7283">
				<stop  offset="0.5257" style="stop-color:#9C9B9B"/>
				<stop  offset="1" style="stop-color:#868686"/>
			</linearGradient>
			<path id="XMLID_1662_" class="st8" d="M454.8,286c0-14.6-11.8-26.4-26.4-26.4c-4.8,0-9.3,1.3-13.2,3.6
				c-16.1,38.3-54,65.1-98.2,65.1c-35.9,0-67.6-17.7-86.9-44.9c-9.6,5.9-16,16.5-16,28.5c0,18.5,15,33.5,33.5,33.5
				c1.9,0,3.7-0.2,5.6-0.5c5.2,16.3,20.5,28,38.5,28c8.4,0,16.3-2.6,22.8-7c6.7,13,20.3,21.8,35.9,21.8c14.4,0,27-7.5,34.2-18.9
				c5.3,2.6,11.2,4,17.5,4c22.3,0,40.4-18.1,40.4-40.4c0-7.8-2.3-15.1-6.1-21.3C447,307.8,454.8,297.8,454.8,286z"/>
			
				<linearGradient id="XMLID_9_" gradientUnits="userSpaceOnUse" x1="-2763.866" y1="419.7509" x2="-2726.011" y2="419.7509" gradientTransform="matrix(-1 0 0 1 -2488.6548 0)">
				<stop  offset="1.702970e-02" style="stop-color:#FDC723"/>
				<stop  offset="1" style="stop-color:#F8B133"/>
			</linearGradient>
			<polygon id="XMLID_1661_" class="st9" points="274.4,384.5 262.1,407.2 275.2,407.2 250.6,455 256.8,420.6 237.4,420.6 
				249.7,384.5 			"/>
			<linearGradient id="XMLID_10_" gradientUnits="userSpaceOnUse" x1="214.212" y1="323.6497" x2="358.4717" y2="323.6497">
				<stop  offset="0" style="stop-color:#FFFFFF"/>
				<stop  offset="1" style="stop-color:#D9D9D9"/>
			</linearGradient>
			<path id="XMLID_1660_" class="st10" d="M320,307.4c-2.2-24-22.4-42.9-47-42.9c-4.9,0-9.7,0.8-14.3,2.2c-4.7,2.9-8.6,7-11.3,11.8
				c-18.3,0.2-33.2,15.1-33.2,33.4c0,18.5,15,33.5,33.5,33.5c1.9,0,3.7-0.2,5.6-0.5c5.2,16.3,20.5,28,38.5,28c8.4,0,16.3-2.6,22.8-7
				c3.7,7.1,9.5,13,16.5,16.9c15.9-4.8,27.5-19.5,27.5-36.9C358.5,324.7,341.2,307.4,320,307.4z"/>
			<radialGradient id="XMLID_11_" cx="175.9441" cy="303.6328" r="152.9125" gradientUnits="userSpaceOnUse">
				<stop  offset="0" style="stop-color:#ECECEC"/>
				<stop  offset="1" style="stop-color:#9C9B9B"/>
			</radialGradient>
			<path id="XMLID_1659_" class="st11" d="M150.7,293.4c0.1,0,0.2,0,0.4,0c-0.2-1.9-0.4-3.9-0.4-5.9c0-28.2,22.9-51.1,51.1-51.1
				c24.5,0,44.9,17.2,49.9,40.1c6.2-3.8,13.5-6,21.3-6c22.7,0,41,18.4,41,41c0,0.8-0.1,1.6-0.1,2.4c2-0.4,4-0.6,6.1-0.6
				c17.9,0,32.4,14.5,32.4,32.4c0,17.9-14.5,32.4-32.4,32.4c-4.6,0-8.9-0.9-12.8-2.6c-7.4,7-17.3,11.3-28.2,11.3
				c-1.3,0-2.7-0.1-4-0.2c-7.5,8.8-18.7,14.3-31.1,14.3c-10.1,0-19.4-3.7-26.6-9.8c-7,5.5-15.8,8.9-25.4,8.9
				c-16.9,0-31.4-10.2-37.7-24.8c-1.1,0.1-2.2,0.2-3.4,0.2c-22.7,0-41-18.4-41-41C109.7,311.8,128.1,293.4,150.7,293.4z"/>
			<path id="XMLID_1658_" class="st12" d="M249.1,268.3c-7.6-18.7-25.9-31.8-47.3-31.8c-28.2,0-51.1,22.9-51.1,51.1
				c0,2,0.1,4,0.4,5.9c-0.1,0-0.2,0-0.4,0c-22.7,0-41,18.4-41,41s18.4,41,41,41c0.1,0,0.1,0,0.2,0
				C203.2,365.4,243.6,322,249.1,268.3z"/>
			<path id="XMLID_1657_" class="st13" d="M291.3,219.2c6.4-2,12.1,4.6,8.1,10.5c-1.1,1.7-3,2.9-4.9,3.9c-2.5,1.4-5.2,2.6-7.8,2.7
				c-7.5,0.5-7-5.9-3-11.4C285.6,222.5,288.3,220.2,291.3,219.2z"/>
			<path id="XMLID_1656_" class="st14" d="M181,247.8c9.2-2.1,16.7,8,10.5,16c-1.8,2.3-4.5,3.8-7.2,5c-3.7,1.7-7.6,3.1-11.3,3
				c-10.6-0.2-9.4-9.1-3.3-16.6C172.5,251.8,176.7,248.8,181,247.8z"/>
			<path id="XMLID_1655_" class="st13" d="M395.5,237.3c7.5,5.8,4.5,18-5.6,18.3c-2.9,0.1-5.8-1.1-8.5-2.4c-3.7-1.8-7.2-3.9-9.5-6.8
				c-6.6-8.3,1.1-13.1,10.7-13.1C387.1,233.3,392,234.6,395.5,237.3z"/>
			<g id="XMLID_1651_">
				
					<radialGradient id="XMLID_12_" cx="-1737.5277" cy="-1573.3979" r="17.1886" gradientTransform="matrix(-0.9999 -1.010000e-02 1.010000e-02 -0.9999 -1408.9965 -1317.3459)" gradientUnits="userSpaceOnUse">
					<stop  offset="0" style="stop-color:#3C3C3B"/>
					<stop  offset="1" style="stop-color:#1D1D1B"/>
				</radialGradient>
				<polygon id="XMLID_1654_" class="st15" points="300.9,271.8 323.4,272 323.4,275.3 300.8,275 				"/>
				
					<radialGradient id="XMLID_13_" cx="-1789.098" cy="-1572.8771" r="17.1886" gradientTransform="matrix(-0.9999 -1.010000e-02 1.010000e-02 -0.9999 -1408.9965 -1317.3459)" gradientUnits="userSpaceOnUse">
					<stop  offset="0" style="stop-color:#3C3C3B"/>
					<stop  offset="1" style="stop-color:#1D1D1B"/>
				</radialGradient>
				<polygon id="XMLID_1653_" class="st16" points="352.4,271.8 375,272 375,275.3 352.4,275 				"/>
				
					<radialGradient id="XMLID_14_" cx="338.4328" cy="257.7352" r="24.2172" gradientTransform="matrix(1 0 0 1 -1.0643 47.4231)" gradientUnits="userSpaceOnUse">
					<stop  offset="0.2927" style="stop-color:#3C3C3B"/>
					<stop  offset="1" style="stop-color:#1D1D1B"/>
				</radialGradient>
				<path id="XMLID_1652_" class="st17" d="M337.8,312c8.1,0,14.6-6.5,14.6-14.6h-29.2C323.2,305.5,329.7,312,337.8,312z"/>
			</g>
		</g>
		<g id="XMLID_1643_">
			<g id="XMLID_1648_">
				
					<radialGradient id="XMLID_15_" cx="161.5467" cy="317.4685" r="23.9766" gradientTransform="matrix(0.845 0 0 1 40.0426 0)" gradientUnits="userSpaceOnUse">
					<stop  offset="0" style="stop-color:#3C3C3B"/>
					<stop  offset="1" style="stop-color:#1D1D1B"/>
				</radialGradient>
				<rect id="XMLID_1649_" x="163.6" y="315.1" class="st18" width="26.6" height="4.5"/>
			</g>
			<g id="XMLID_1646_">
				
					<radialGradient id="XMLID_16_" cx="193.0287" cy="353.371" r="23.9766" gradientTransform="matrix(0.845 0 0 1 40.0426 0)" gradientUnits="userSpaceOnUse">
					<stop  offset="0" style="stop-color:#3C3C3B"/>
					<stop  offset="1" style="stop-color:#1D1D1B"/>
				</radialGradient>
				<rect id="XMLID_1647_" x="190.2" y="351" class="st19" width="26.6" height="4.5"/>
			</g>
			<g id="XMLID_1644_">
				
					<radialGradient id="XMLID_17_" cx="231.2201" cy="317.4685" r="23.9766" gradientTransform="matrix(0.845 0 0 1 40.0426 0)" gradientUnits="userSpaceOnUse">
					<stop  offset="0" style="stop-color:#3C3C3B"/>
					<stop  offset="1" style="stop-color:#1D1D1B"/>
				</radialGradient>
				<rect id="XMLID_1645_" x="222.5" y="315.1" class="st20" width="26.6" height="4.5"/>
			</g>
		</g>
	</g>
</g>
</svg>
