<?xml version="1.0" encoding="utf-8"?>
<!-- Generator: Adobe Illustrator 23.0.5, SVG Export Plug-In . SVG Version: 6.00 Build 0)  -->
<svg version="1.1" id="Layer_1" xmlns="http://www.w3.org/2000/svg" xmlns:xlink="http://www.w3.org/1999/xlink" x="0px" y="0px"
	 viewBox="0 0 512 512" style="enable-background:new 0 0 512 512;" xml:space="preserve">
<style type="text/css">
	.st0{fill:url(#XMLID_2_);}
	.st1{fill:url(#XMLID_3_);}
	.st2{fill:url(#XMLID_4_);}
	.st3{fill:url(#XMLID_5_);}
	.st4{fill:url(#XMLID_6_);}
	.st5{fill:url(#XMLID_7_);}
	.st6{fill:url(#XMLID_8_);}
	.st7{fill:url(#XMLID_9_);}
	.st8{fill:url(#XMLID_10_);}
	.st9{fill:url(#XMLID_11_);}
	.st10{fill:url(#XMLID_12_);}
	.st11{fill:url(#XMLID_13_);}
	.st12{fill:url(#XMLID_14_);}
	.st13{fill:url(#XMLID_15_);}
	.st14{fill:url(#XMLID_16_);}
	.st15{fill:url(#XMLID_17_);}
	.st16{fill:url(#XMLID_18_);}
	.st17{fill:url(#XMLID_19_);}
	.st18{fill:url(#XMLID_20_);}
	.st19{fill:url(#XMLID_21_);}
	.st20{fill:url(#XMLID_22_);}
	.st21{fill:url(#XMLID_23_);}
	.st22{fill:url(#XMLID_24_);}
	.st23{fill:url(#XMLID_25_);}
	.st24{fill:url(#XMLID_26_);}
	.st25{fill:url(#XMLID_27_);}
	.st26{fill:url(#XMLID_28_);}
	.st27{opacity:0.4;fill:url(#XMLID_29_);}
	.st28{opacity:0.3;}
	.st29{fill:url(#XMLID_30_);}
	.st30{fill:url(#XMLID_31_);}
	.st31{fill:url(#XMLID_32_);}
	.st32{fill:url(#XMLID_33_);}
	.st33{fill:url(#XMLID_34_);}
	.st34{fill:url(#XMLID_35_);}
	.st35{fill:url(#XMLID_36_);}
	.st36{fill:url(#XMLID_37_);}
	.st37{opacity:0.68;fill:#FFFFFF;}
</style>
<g id="XMLID_1272_">
	<g id="XMLID_1276_">
		<g id="XMLID_1306_">
			<g id="XMLID_1309_">
				
					<radialGradient id="XMLID_2_" cx="2272.1619" cy="-538.4742" r="18.1095" gradientTransform="matrix(-0.5001 0.2947 0.1157 0.3045 1499.1438 -50.8138)" gradientUnits="userSpaceOnUse">
					<stop  offset="0.2137" style="stop-color:#FFFFFF"/>
					<stop  offset="0.9974" style="stop-color:#B1B1B1"/>
				</radialGradient>
				<path id="XMLID_1317_" class="st0" d="M292.5,461.1c0.8,1.7,4.4,1.3,8.1-0.9c3.7-2.1,6.1-5.2,5.3-6.9s-4.4-1.3-8.1,0.9
					C294.1,456.4,291.7,459.5,292.5,461.1z"/>
				
					<linearGradient id="XMLID_3_" gradientUnits="userSpaceOnUse" x1="1849.5085" y1="23.8395" x2="1864.105" y2="23.8395" gradientTransform="matrix(-0.8359 0.5489 0.5489 0.8359 1838.2501 -582.6166)">
					<stop  offset="0" style="stop-color:#FFFFFF"/>
					<stop  offset="1" style="stop-color:#D9D9D9"/>
				</linearGradient>
				<path id="XMLID_1316_" class="st1" d="M292.5,459.5c0.6-1.6,2.6-3.7,5.3-5.3c3.7-2.1,7.3-2.5,8.1-0.9c0.3,0.6,0.1,1.4-0.4,2.3
					c-1.2,0.8-2.5,1.5-4,2.1C298.2,459.1,294.9,459.7,292.5,459.5z"/>
				
					<radialGradient id="XMLID_4_" cx="2310.5493" cy="-342.4601" r="36.3389" gradientTransform="matrix(-0.5249 0.2368 5.850334e-02 0.1784 1537.4208 -37.764)" gradientUnits="userSpaceOnUse">
					<stop  offset="0.2137" style="stop-color:#FFFFFF"/>
					<stop  offset="0.9974" style="stop-color:#B1B1B1"/>
				</radialGradient>
				<path id="XMLID_1315_" class="st2" d="M286.3,456.8c1.3,3.1,7.3,3.3,13.5,0.6c6.1-2.7,10-7.4,8.7-10.5
					c-1.3-3.1-7.3-3.3-13.5-0.6C288.8,449.1,284.9,453.8,286.3,456.8z"/>
				
					<radialGradient id="XMLID_5_" cx="2329.6411" cy="-271.4266" r="31.8098" gradientTransform="matrix(-0.5371 0.199 7.474561e-02 0.2597 1572.3813 55.129)" gradientUnits="userSpaceOnUse">
					<stop  offset="0.2137" style="stop-color:#FFFFFF"/>
					<stop  offset="0.4057" style="stop-color:#FBFBFB"/>
					<stop  offset="0.5773" style="stop-color:#F1F1F1"/>
					<stop  offset="0.7412" style="stop-color:#DEDEDE"/>
					<stop  offset="0.8994" style="stop-color:#C5C5C5"/>
					<stop  offset="0.9974" style="stop-color:#B1B1B1"/>
				</radialGradient>
				<path id="XMLID_1314_" class="st3" d="M294.9,446.4c6.1-2.7,12.1-2.5,13.5,0.6c0.1,0.3,0.2,0.7,0.3,1c-2,2.6-4.7,5.1-7.8,7.2
					c-2.6,1.8-5.3,3.1-7.8,4c-3.3,0.3-5.9-0.5-6.7-2.4C284.9,453.8,288.8,449.1,294.9,446.4z"/>
				
					<linearGradient id="XMLID_6_" gradientUnits="userSpaceOnUse" x1="1843.8553" y1="18.4687" x2="1866.4043" y2="18.4687" gradientTransform="matrix(-0.8359 0.5489 0.5489 0.8359 1838.2501 -582.6166)">
					<stop  offset="0" style="stop-color:#FFFFFF"/>
					<stop  offset="1" style="stop-color:#D9D9D9"/>
				</linearGradient>
				<path id="XMLID_1313_" class="st4" d="M286.2,454.2c0.9-2.7,4.2-5.8,8.7-7.8c6.1-2.7,12.1-2.5,13.5,0.6c0.6,1.4,0.1,3.1-1.1,4.8
					c-1.9,0.9-3.9,1.7-6.1,2.3C295.7,455.4,290.3,455.4,286.2,454.2z"/>
				
					<radialGradient id="XMLID_7_" cx="2317.7068" cy="-284.6689" r="53.285" gradientTransform="matrix(-0.5371 0.199 7.474561e-02 0.2597 1568.3944 49.3333)" gradientUnits="userSpaceOnUse">
					<stop  offset="0.2137" style="stop-color:#FFFFFF"/>
					<stop  offset="0.4057" style="stop-color:#FBFBFB"/>
					<stop  offset="0.5773" style="stop-color:#F1F1F1"/>
					<stop  offset="0.7412" style="stop-color:#DEDEDE"/>
					<stop  offset="0.8994" style="stop-color:#C5C5C5"/>
					<stop  offset="0.9974" style="stop-color:#B1B1B1"/>
				</radialGradient>
				<path id="XMLID_1312_" class="st5" d="M277.7,449.2c2.4,5.6,12.5,6.7,22.5,2.3c10-4.4,16.2-12.5,13.8-18.1
					c-2.4-5.6-12.5-6.7-22.5-2.3C281.5,435.4,275.3,443.5,277.7,449.2z"/>
				
					<radialGradient id="XMLID_8_" cx="2312.3777" cy="-293.0591" r="57.3103" fx="2317.6907" fy="-279.8468" gradientTransform="matrix(-0.537 0.1995 9.335537e-02 0.3236 1571.172 63.7033)" gradientUnits="userSpaceOnUse">
					<stop  offset="0.2137" style="stop-color:#FFFFFF"/>
					<stop  offset="0.9974" style="stop-color:#B1B1B1"/>
				</radialGradient>
				<path id="XMLID_1311_" class="st6" d="M291.5,431.1c9.2-4,18.5-3.4,21.8,1.1c0.2,5.4-5.8,12.7-14.9,17.7
					c-4.1,2.3-8.3,3.7-12,4.3c-4.2-0.4-7.4-2.1-8.6-4.9C275.3,443.5,281.5,435.4,291.5,431.1z"/>
				
					<linearGradient id="XMLID_9_" gradientUnits="userSpaceOnUse" x1="1831.6985" y1="7.2978" x2="1869.7678" y2="7.2978" gradientTransform="matrix(-0.8359 0.5489 0.5489 0.8359 1838.2501 -582.6166)">
					<stop  offset="0" style="stop-color:#FFFFFF"/>
					<stop  offset="1" style="stop-color:#D9D9D9"/>
				</linearGradient>
				<path id="XMLID_1310_" class="st7" d="M300.5,446.5c-9.9,4.3-19.7,4.2-23.3,0c0.1-5.3,5.8-11.7,14.3-15.4
					c10-4.4,20.1-3.3,22.5,2.3c0.3,0.8,0.5,1.6,0.5,2.4C311.8,439.8,306.8,443.7,300.5,446.5z"/>
			</g>
			
				<radialGradient id="XMLID_10_" cx="2495.7612" cy="46.0168" r="59.6359" gradientTransform="matrix(-0.5622 5.029918e-02 8.932594e-03 0.3307 1690.1534 287.9909)" gradientUnits="userSpaceOnUse">
				<stop  offset="0.2137" style="stop-color:#FFFFFF"/>
				<stop  offset="0.9974" style="stop-color:#B1B1B1"/>
			</radialGradient>
			<path id="XMLID_1308_" class="st8" d="M255.7,435.8c0.6,6.1,12.1,10.2,25.8,9c13.7-1.1,24.3-7,23.7-13.1
				c-0.6-6.1-12.1-10.2-25.8-9C265.7,423.8,255.1,429.7,255.7,435.8z"/>
			
				<linearGradient id="XMLID_11_" gradientUnits="userSpaceOnUse" x1="1937.6521" y1="272.1131" x2="1984.385" y2="272.1131" gradientTransform="matrix(-0.9814 0.1917 0.1917 0.9814 2153.8347 -210.9266)">
				<stop  offset="0" style="stop-color:#FFFFFF"/>
				<stop  offset="1" style="stop-color:#D9D9D9"/>
			</linearGradient>
			<path id="XMLID_1307_" class="st9" d="M257.4,431c3.5-4.1,11.9-7.5,21.9-8.3c13.7-1.1,25.2,2.9,25.8,9c0.2,2.3-1.1,4.5-3.6,6.5
				c-4.4,0.6-9.2,0.8-14.4,0.5C275.4,438.1,264.6,435.2,257.4,431z"/>
		</g>
		<g id="XMLID_1297_">
			
				<radialGradient id="XMLID_12_" cx="392.31" cy="980.7989" r="29.6806" gradientTransform="matrix(0.9576 0.2758 -0.1077 0.4895 -0.3845 -167.5811)" gradientUnits="userSpaceOnUse">
				<stop  offset="0.2137" style="stop-color:#FFFFFF"/>
				<stop  offset="0.9974" style="stop-color:#B1B1B1"/>
			</radialGradient>
			<path id="XMLID_1305_" class="st10" d="M295.9,431.6c-1.3,4.4-11.8,5.4-23.4,2.1s-19.9-9.5-18.6-13.9c1.3-4.4,11.8-5.4,23.4-2.1
				C288.9,421,297.2,427.2,295.9,431.6z"/>
			
				<linearGradient id="XMLID_13_" gradientUnits="userSpaceOnUse" x1="334.7022" y1="774.1013" x2="375.8177" y2="774.1013" gradientTransform="matrix(0.9256 0.3784 -0.3784 0.9256 238.3022 -426.5872)">
				<stop  offset="0" style="stop-color:#FFFFFF"/>
				<stop  offset="1" style="stop-color:#D9D9D9"/>
			</linearGradient>
			<path id="XMLID_1304_" class="st11" d="M295,427.8c-2.5-3.7-9.2-7.7-17.7-10.1c-11.6-3.3-22.1-2.3-23.4,2.1
				c-0.5,1.6,0.3,3.5,2.2,5.4c3.7,1.2,7.8,2.2,12.3,2.9C278.6,429.8,288.3,429.6,295,427.8z"/>
			
				<radialGradient id="XMLID_14_" cx="344.5259" cy="842.7842" r="59.5645" gradientTransform="matrix(0.9829 0.1819 -4.696995e-02 0.2838 -43.7813 105.1137)" gradientUnits="userSpaceOnUse">
				<stop  offset="0.2137" style="stop-color:#FFFFFF"/>
				<stop  offset="0.9974" style="stop-color:#B1B1B1"/>
			</radialGradient>
			<path id="XMLID_1303_" class="st12" d="M311.3,417.9c-2.2,8.1-19.2,12-38,8.6c-18.7-3.4-32.1-12.8-29.9-20.9
				c2.2-8.1,19.2-12,38-8.6C300.2,400.4,313.6,409.8,311.3,417.9z"/>
			
				<radialGradient id="XMLID_15_" cx="339.9371" cy="759.415" r="52.1397" gradientTransform="matrix(0.9925 0.1218 -5.026376e-02 0.4097 -33.6377 52.4375)" gradientUnits="userSpaceOnUse">
				<stop  offset="0.2137" style="stop-color:#FFFFFF"/>
				<stop  offset="0.4057" style="stop-color:#FBFBFB"/>
				<stop  offset="0.5773" style="stop-color:#F1F1F1"/>
				<stop  offset="0.7412" style="stop-color:#DEDEDE"/>
				<stop  offset="0.8994" style="stop-color:#C5C5C5"/>
				<stop  offset="0.9974" style="stop-color:#B1B1B1"/>
			</radialGradient>
			<path id="XMLID_1302_" class="st13" d="M281.5,397c-18.7-3.4-35.7,0.4-38,8.6c-0.2,0.9-0.3,1.8-0.2,2.7c7,5.2,15.8,9.9,25.9,13.5
				c8.3,2.9,16.5,4.8,24.3,5.6c9.5-1.1,16.5-4.4,17.9-9.4C313.6,409.8,300.2,400.4,281.5,397z"/>
			
				<linearGradient id="XMLID_16_" gradientUnits="userSpaceOnUse" x1="319.6631" y1="760.4658" x2="383.6346" y2="760.4658" gradientTransform="matrix(0.9256 0.3784 -0.3784 0.9256 238.3022 -426.5872)">
				<stop  offset="0" style="stop-color:#FFFFFF"/>
				<stop  offset="1" style="stop-color:#D9D9D9"/>
			</linearGradient>
			<path id="XMLID_1301_" class="st14" d="M310.1,411.5c-3.8-6.1-14.8-11.9-28.7-14.5c-18.7-3.4-35.7,0.4-38,8.6
				c-1,3.6,1.1,7.5,5.4,11c5.7,1.2,12,2.1,18.5,2.3C283.9,419.5,299.1,416.6,310.1,411.5z"/>
			
				<radialGradient id="XMLID_17_" cx="320.3777" cy="737.7066" r="87.3391" gradientTransform="matrix(0.9925 0.1218 -5.026376e-02 0.4097 -25.2055 36.2185)" gradientUnits="userSpaceOnUse">
				<stop  offset="0.2137" style="stop-color:#FFFFFF"/>
				<stop  offset="0.4057" style="stop-color:#FBFBFB"/>
				<stop  offset="0.5773" style="stop-color:#F1F1F1"/>
				<stop  offset="0.7412" style="stop-color:#DEDEDE"/>
				<stop  offset="0.8994" style="stop-color:#C5C5C5"/>
				<stop  offset="0.9974" style="stop-color:#B1B1B1"/>
			</radialGradient>
			<path id="XMLID_1300_" class="st15" d="M332,394.7c-4,15-32.1,22.9-62.8,17.6c-30.7-5.3-52.4-21.7-48.4-36.7
				c4-15,32.1-22.9,62.8-17.6S335.9,379.7,332,394.7z"/>
			
				<radialGradient id="XMLID_18_" cx="311.6427" cy="723.9542" r="93.9372" fx="320.3511" fy="745.6105" gradientTransform="matrix(0.9924 0.1225 -6.300946e-02 0.5106 -10.8539 -46.3713)" gradientUnits="userSpaceOnUse">
				<stop  offset="0.2137" style="stop-color:#FFFFFF"/>
				<stop  offset="0.9974" style="stop-color:#B1B1B1"/>
			</radialGradient>
			<path id="XMLID_1299_" class="st16" d="M283.6,358c-28.3-4.9-54.3,1.4-61.4,14.2c2.3,13.2,23,27.9,51.3,35.1
				c12.9,3.3,25.5,4.5,36.4,4c11.7-3.1,20.1-8.9,22.1-16.6C335.9,379.7,314.3,363.3,283.6,358z"/>
			
				<linearGradient id="XMLID_19_" gradientUnits="userSpaceOnUse" x1="287.2666" y1="732.3436" x2="395.0491" y2="732.3436" gradientTransform="matrix(0.9256 0.3784 -0.3784 0.9256 238.3022 -426.5872)">
				<stop  offset="0" style="stop-color:#FFFFFF"/>
				<stop  offset="1" style="stop-color:#D9D9D9"/>
			</linearGradient>
			<path id="XMLID_1298_" class="st17" d="M265.7,400.3c30.4,5.2,58.2-0.3,66.3-12.3c-2.8-12.9-22.4-25.4-48.5-29.9
				c-30.7-5.3-58.8,2.6-62.8,17.6c-0.5,2-0.6,4.1-0.2,6.2C230.1,390,246.3,396.9,265.7,400.3z"/>
		</g>
		
			<radialGradient id="XMLID_20_" cx="293.6641" cy="406.9652" r="97.747" gradientTransform="matrix(0.9907 -0.107 8.557060e-02 0.4939 -31.5161 180.5468)" gradientUnits="userSpaceOnUse">
			<stop  offset="0.2137" style="stop-color:#FFFFFF"/>
			<stop  offset="0.9974" style="stop-color:#B1B1B1"/>
		</radialGradient>
		<path id="XMLID_1296_" class="st18" d="M387.8,350.5c1.4,15.2-29.4,31.2-68.8,35.7c-39.4,4.5-72.6-4.1-74-19.3
			c-1.4-15.2,29.4-31.2,68.8-35.7S386.4,335.3,387.8,350.5z"/>
		<linearGradient id="XMLID_21_" gradientUnits="userSpaceOnUse" x1="244.9599" y1="355.3677" x2="380.3527" y2="355.3677">
			<stop  offset="0" style="stop-color:#FFFFFF"/>
			<stop  offset="1" style="stop-color:#D9D9D9"/>
		</linearGradient>
		<path id="XMLID_1295_" class="st19" d="M380.4,339.9c-12.1-8.2-37.6-12-66.5-8.6c-39.4,4.5-70.2,20.5-68.8,35.7
			c0.5,5.6,5.4,10.4,13.4,13.8c12.8-0.9,26.7-3,41.1-6.4C333,366.6,362.1,353.7,380.4,339.9z"/>
		
			<radialGradient id="XMLID_22_" cx="229.7475" cy="303.5907" r="196.1516" gradientTransform="matrix(0.9787 -0.2036 6.392149e-02 0.2805 -10.9503 287.6852)" gradientUnits="userSpaceOnUse">
			<stop  offset="0.2137" style="stop-color:#FFFFFF"/>
			<stop  offset="0.9974" style="stop-color:#B1B1B1"/>
		</radialGradient>
		<path id="XMLID_1294_" class="st20" d="M417.8,289.4c3.3,27.6-43.7,60.4-105.1,73.4c-61.4,13-113.8,1.2-117.1-26.4
			c-3.3-27.6,43.7-60.4,105.1-73.4C362,250.1,414.5,261.9,417.8,289.4z"/>
		
			<radialGradient id="XMLID_23_" cx="262.1971" cy="307.005" r="171.6966" gradientTransform="matrix(0.9648 -0.2629 0.1085 0.3983 -24.0921 253.6625)" gradientUnits="userSpaceOnUse">
			<stop  offset="0.2137" style="stop-color:#FFFFFF"/>
			<stop  offset="0.4057" style="stop-color:#FBFBFB"/>
			<stop  offset="0.5773" style="stop-color:#F1F1F1"/>
			<stop  offset="0.7412" style="stop-color:#DEDEDE"/>
			<stop  offset="0.8994" style="stop-color:#C5C5C5"/>
			<stop  offset="0.9974" style="stop-color:#B1B1B1"/>
		</radialGradient>
		<path id="XMLID_1293_" class="st21" d="M300.7,263c-61.4,13-108.4,45.8-105.1,73.4c0.4,3,1.3,5.8,2.8,8.4
			c27.7,7.1,60.5,10.4,95.7,8.7c28.9-1.4,56.4-6,81-13.1c27.7-15.1,44.8-34.1,42.7-51.1C414.5,261.9,362,250.1,300.7,263z"/>
		<linearGradient id="XMLID_24_" gradientUnits="userSpaceOnUse" x1="195.435" y1="310.4661" x2="406.092" y2="310.4661">
			<stop  offset="0" style="stop-color:#FFFFFF"/>
			<stop  offset="1" style="stop-color:#D9D9D9"/>
		</linearGradient>
		<path id="XMLID_1292_" class="st22" d="M406.1,271.4c-19.3-14-59.9-18-105.4-8.4c-61.4,13-108.4,45.8-105.1,73.4
			c1.5,12.3,12.8,21.5,30.3,26.7c19-3.3,39-8.6,59.3-16C336.1,328.6,378.9,300.8,406.1,271.4z"/>
		
			<radialGradient id="XMLID_25_" cx="197.7854" cy="235.5202" r="287.6085" gradientTransform="matrix(0.9648 -0.2629 0.1085 0.3983 -18.6005 193.7149)" gradientUnits="userSpaceOnUse">
			<stop  offset="0.2137" style="stop-color:#FFFFFF"/>
			<stop  offset="0.4057" style="stop-color:#FBFBFB"/>
			<stop  offset="0.5773" style="stop-color:#F1F1F1"/>
			<stop  offset="0.7412" style="stop-color:#DEDEDE"/>
			<stop  offset="0.8994" style="stop-color:#C5C5C5"/>
			<stop  offset="0.9974" style="stop-color:#B1B1B1"/>
		</radialGradient>
		<path id="XMLID_1291_" class="st23" d="M451.8,193.1c6.6,50.6-69.3,109.7-169.4,131.8S95.7,324,89.1,273.3
			c-6.6-50.6,69.3-109.7,169.4-131.8C358.7,119.3,445.2,142.4,451.8,193.1z"/>
		
			<radialGradient id="XMLID_26_" cx="169.0201" cy="190.2325" r="309.3372" fx="197.6973" fy="261.547" gradientTransform="matrix(0.965 -0.2622 0.1349 0.4965 -19.7475 140.1038)" gradientUnits="userSpaceOnUse">
			<stop  offset="0.2137" style="stop-color:#FFFFFF"/>
			<stop  offset="0.9974" style="stop-color:#B1B1B1"/>
		</radialGradient>
		<path id="XMLID_1290_" class="st24" d="M258.6,141.5c-92.2,20.4-163.9,72.1-169.5,119.7c23.4,37.5,104.8,56.5,200.2,43.2
			c43.5-6.1,83.4-17.9,115.9-33.2c31.9-24.2,50-52.2,46.7-78.1C445.2,142.4,358.7,119.3,258.6,141.5z"/>
		<linearGradient id="XMLID_27_" gradientUnits="userSpaceOnUse" x1="88.7505" y1="217.8603" x2="443.677" y2="217.8603">
			<stop  offset="0" style="stop-color:#FFFFFF"/>
			<stop  offset="1" style="stop-color:#D9D9D9"/>
		</linearGradient>
		<path id="XMLID_1289_" class="st25" d="M256.8,292.6c99.1-21.9,177-73.3,186.8-120.3c-24.7-35.7-100-49.6-185.1-30.7
			c-100.1,22.2-176,81.2-169.4,131.8c0.9,6.9,3.3,13.2,6.9,19.1C135.4,305.5,193.5,306.6,256.8,292.6z"/>
		
			<radialGradient id="XMLID_28_" cx="231.247" cy="129.995" r="316.4569" fx="260.5843" fy="202.9509" gradientTransform="matrix(1.0629 -0.2788 0.1398 0.4956 -118.9257 145.0322)" gradientUnits="userSpaceOnUse">
			<stop  offset="0.2137" style="stop-color:#FFFFFF"/>
			<stop  offset="0.9974" style="stop-color:#B1B1B1"/>
		</radialGradient>
		<path id="XMLID_1288_" class="st26" d="M455.4,134.4C462,185,378,245.8,267.9,270.2c-110.1,24.4-204.8,3.1-211.3-47.6
			C50,172,134,111.1,244.1,86.8C354.3,62.4,448.9,83.7,455.4,134.4z"/>
		<radialGradient id="XMLID_29_" cx="260.4547" cy="146.2047" r="127.9542" gradientUnits="userSpaceOnUse">
			<stop  offset="0.2137" style="stop-color:#FFFFFF"/>
			<stop  offset="0.9974" style="stop-color:#B1B1B1"/>
		</radialGradient>
		<path id="XMLID_1287_" class="st27" d="M429.2,111.4c-3.4-30.3-81.8-39.3-175-20.1C161,110.6,88.2,150.7,91.7,181
			c3.4,30.3,81.8,39.3,175,20.1C359.9,181.8,432.7,141.7,429.2,111.4z"/>
		<g id="XMLID_1282_" class="st28">
			
				<radialGradient id="XMLID_30_" cx="365.093" cy="150.303" r="230.4715" fx="566.4133" fy="132.1994" gradientTransform="matrix(-1.1044 0.1665 -8.545766e-02 -0.255 649.5126 107.7821)" gradientUnits="userSpaceOnUse">
				<stop  offset="0.2137" style="stop-color:#FFFFFF"/>
				<stop  offset="0.9974" style="stop-color:#B1B1B1"/>
			</radialGradient>
			<path id="XMLID_1286_" class="st29" d="M427.9,113.4c4.6,25.1-58.7,55.6-141.3,68.1c-82.6,12.6-153.3,2.4-157.9-22.6
				c-4.6-25.1,58.7-55.6,141.3-68.1C352.6,78.2,423.3,88.4,427.9,113.4z"/>
			
				<radialGradient id="XMLID_31_" cx="369.7895" cy="127.1418" r="199.5574" fx="503.6259" fy="108.9326" gradientTransform="matrix(0.8804 -0.1664 0.1231 0.3152 78.6798 115.906)" gradientUnits="userSpaceOnUse">
				<stop  offset="0.2137" style="stop-color:#FFFFFF"/>
				<stop  offset="0.9974" style="stop-color:#B1B1B1"/>
			</radialGradient>
			<path id="XMLID_1285_" class="st30" d="M131.8,165.7c13.8-21.9,69.3-44.9,138.2-55.3c74.7-11.4,139.7-4.2,154.8,15.9
				c2.7-4.3,3.8-8.6,3.1-12.8c-4.6-25.1-75.3-35.2-157.9-22.6c-82.6,12.6-145.9,43.1-141.3,68.1
				C129.1,161.3,130.2,163.6,131.8,165.7z"/>
			
				<radialGradient id="XMLID_32_" cx="371.8299" cy="130.9037" r="251.8564" fx="540.7415" fy="107.9224" gradientTransform="matrix(0.8804 -0.1664 0.1231 0.3152 78.282 117.448)" gradientUnits="userSpaceOnUse">
				<stop  offset="0.2137" style="stop-color:#FFFFFF"/>
				<stop  offset="0.9974" style="stop-color:#B1B1B1"/>
			</radialGradient>
			<path id="XMLID_1284_" class="st31" d="M427.9,113.4c-3.8-20.5-51.9-31-114.5-27.3c38.3,2.7,64.6,12.3,67.3,27.3
				c4.6,25.1-58.7,55.6-141.3,68.1c-15,2.3-29.5,3.8-43.4,4.6c25.9,1.8,57.3,0.4,90.6-4.6C369.2,169,432.5,138.5,427.9,113.4z"/>
			
				<radialGradient id="XMLID_33_" cx="298.9173" cy="130.901" r="251.8619" fx="467.8325" fy="107.9192" gradientTransform="matrix(0.8804 -0.1664 0.1231 0.3152 75.9552 105.3115)" gradientUnits="userSpaceOnUse">
				<stop  offset="0.2137" style="stop-color:#FFFFFF"/>
				<stop  offset="0.9974" style="stop-color:#B1B1B1"/>
			</radialGradient>
			<path id="XMLID_1283_" class="st32" d="M178.2,158.9c-4.6-25.1,58.7-55.6,141.3-68.1c14.5-2.2,28.6-3.7,42.1-4.6
				c-26.1-1.9-57.9-0.6-91.7,4.6c-82.6,12.6-145.9,43.1-141.3,68.1c3.8,20.7,52.5,31.2,115.8,27.2
				C206.8,183.3,180.9,173.7,178.2,158.9z"/>
		</g>
		<g id="XMLID_1278_">
			<radialGradient id="XMLID_34_" cx="133.0228" cy="256.2887" r="8.9173" gradientUnits="userSpaceOnUse">
				<stop  offset="0" style="stop-color:#3C3C3B"/>
				<stop  offset="1" style="stop-color:#1D1D1B"/>
			</radialGradient>
			<path id="XMLID_1281_" class="st33" d="M138.7,259.6c0,4.9-4,8.9-8.9,8.9c-4.9,0-8.9-4-8.9-8.9c0-4.9,4-8.9,8.9-8.9
				C134.7,250.7,138.7,254.7,138.7,259.6z"/>
			<radialGradient id="XMLID_35_" cx="246.9709" cy="255.5845" r="8.9173" gradientUnits="userSpaceOnUse">
				<stop  offset="0" style="stop-color:#3C3C3B"/>
				<stop  offset="1" style="stop-color:#1D1D1B"/>
			</radialGradient>
			<path id="XMLID_1280_" class="st34" d="M253.3,259.6c0,4.9-4,8.9-8.9,8.9c-4.9,0-8.9-4-8.9-8.9c0-4.9,4-8.9,8.9-8.9
				C249.3,250.7,253.3,254.7,253.3,259.6z"/>
			<radialGradient id="XMLID_36_" cx="186.5905" cy="305.5385" r="26.1307" gradientUnits="userSpaceOnUse">
				<stop  offset="0.2927" style="stop-color:#3C3C3B"/>
				<stop  offset="1" style="stop-color:#1D1D1B"/>
			</radialGradient>
			<path id="XMLID_1279_" class="st35" d="M187.1,312.9c8.7,0,15.7-7,15.7-15.7h-31.5C171.3,305.9,178.4,312.9,187.1,312.9z"/>
		</g>
		
			<radialGradient id="XMLID_37_" cx="1991.7234" cy="14.6992" r="248.0345" fx="2158.0718" fy="-7.9334" gradientTransform="matrix(-1.1045 0.2854 -0.1841 -0.3794 2342.238 -383.7305)" gradientUnits="userSpaceOnUse">
			<stop  offset="0.2137" style="stop-color:#FFFFFF"/>
			<stop  offset="0.9974" style="stop-color:#B1B1B1"/>
		</radialGradient>
		<path id="XMLID_1277_" class="st36" d="M130.5,160.9c6.6,25.1,71,27.6,135.8,23.4c-48.9,0.1-71-9.3-75.8-27.6
			c-8-30.6,69.7-74.1,173.6-97.1c18.8-4.2,37.2-7.4,54.8-9.6C385.8,50,346,54.5,304.1,63.8C200.2,86.8,122.4,130.2,130.5,160.9z"/>
	</g>
	<path id="XMLID_1275_" class="st37" d="M63.1,214.5c1.3-10.5,11.8-12.8,16.2-2.4c1.3,3,1.6,6.6,1.7,9.9c0.2,4.6,0,9.4-1.2,13
		c-3.6,10.7-10.4,4.8-14.3-5.3C63.6,225.1,62.5,219.4,63.1,214.5z"/>
	<path id="XMLID_1274_" class="st37" d="M438.5,229.1c-6.9,7.7-13.3,4.6-9-5.7c1.2-2.9,3.2-5.9,5.2-8.7c2.7-3.7,5.6-7.4,8.4-9.7
		c8.1-6.8,7.8,1.1,3.6,10.9C444.7,220.4,441.8,225.5,438.5,229.1z"/>
	<path id="XMLID_1273_" class="st37" d="M222.3,378.7c-0.7-3,2.4-5.4,5-3.3c0.7,0.6,1.2,1.5,1.6,2.4c0.6,1.2,1,2.5,1,3.7
		c0,3.4-2.8,3-5.3,1C223.6,381.5,222.6,380.1,222.3,378.7z"/>
</g>
</svg>
